<mxfile host="app.diagrams.net" agent="Mozilla/5.0 (Windows NT 10.0; Win64; x64) AppleWebKit/537.36 (KHTML, like Gecko) Chrome/137.0.0.0 Safari/537.36" version="27.1.6">
  <diagram name="Page-1" id="v2-GzdnbRQDUQpKRo0ct">
    <mxGraphModel dx="2887" dy="1001" grid="1" gridSize="10" guides="1" tooltips="1" connect="1" arrows="1" fold="1" page="1" pageScale="1" pageWidth="850" pageHeight="1100" math="0" shadow="0">
      <root>
        <mxCell id="0" />
        <mxCell id="1" parent="0" />
        <UserObject label="" plantUmlData="{&quot;data&quot;:&quot;@startuml\nhide circle\nskinparam linetype ortho\n\n&#39; ========== ENUMS ==========\nenum Gender {\n  Male\n  Female\n  Other\n}\n\nenum EmployeeStatus {\n  Active\n  Inactive\n  OnLeave\n  Resigned\n}\n\nenum ContractType {\n  Fulltime\n  Parttime\n  Contract\n}\n\nenum LeaveStatus {\n  Pending\n  Approved\n  Rejected\n}\n\nenum EventType {\n  Reward\n  Discipline\n}\n\n&#39; ========== TABLES ==========\n\nentity Branches {\n  * id : INT &lt;&lt;PK&gt;&gt;\n  --\n  name : VARCHAR\n  address : TEXT\n  established_date : DATE\n}\n\nentity Buildings {\n  * id : INT &lt;&lt;PK&gt;&gt;\n  --\n  branch_id : INT &lt;&lt;FK&gt;&gt;\n  name : VARCHAR\n  address : TEXT\n  lat : DECIMAL\n  lng : DECIMAL\n  footprint : geometry(POLYGON,4326)\n  floor_count : INT\n  floor_height_m : DECIMAL\n  total_height_m : DECIMAL\n  area_m2 : DECIMAL\n  color_code : VARCHAR\n  manager_name : VARCHAR\n  image_url : VARCHAR\n  model_3d_url : VARCHAR\n  texture_url : VARCHAR\n}\n\nentity Rooms {\n  * id : INT &lt;&lt;PK&gt;&gt;\n  --\n  building_id : INT &lt;&lt;FK&gt;&gt;\n  name : VARCHAR\n  floor : INT\n  area_m2 : DECIMAL\n  usage_type : VARCHAR\n  department_id : INT &lt;&lt;FK&gt;&gt;\n}\n\nentity Departments {\n  * id : INT &lt;&lt;PK&gt;&gt;\n  --\n  name : VARCHAR\n  description : TEXT\n}\n\nentity Positions {\n  * id : INT &lt;&lt;PK&gt;&gt;\n  --\n  title : VARCHAR\n  level : VARCHAR\n  base_salary : DECIMAL\n}\n\nentity Employees {\n  * id : INT &lt;&lt;PK&gt;&gt;\n  --\n  full_name : VARCHAR\n  gender : Gender\n  dob : DATE\n  phone : VARCHAR\n  email : VARCHAR\n  department_id : INT &lt;&lt;FK&gt;&gt;\n  position_id : INT &lt;&lt;FK&gt;&gt;\n  room_id : INT &lt;&lt;FK&gt;&gt;\n  floor_number : INT\n  room_code : VARCHAR\n  hire_date : DATE\n  status : EmployeeStatus\n  avatar_url : VARCHAR\n  location_vector : VECTOR(358)\n}\n\nentity Contracts {\n  * id : INT &lt;&lt;PK&gt;&gt;\n  --\n  employee_id : INT &lt;&lt;FK&gt;&gt;\n  type : ContractType\n  start_date : DATE\n  end_date : DATE\n  base_salary : DECIMAL\n}\n\nentity Payroll {\n  * id : INT &lt;&lt;PK&gt;&gt;\n  --\n  employee_id : INT &lt;&lt;FK&gt;&gt;\n  year_month : VARCHAR\n  salary_total : DECIMAL\n  bonus : DECIMAL\n  deductions : DECIMAL\n}\n\nentity Leaves {\n  * id : INT &lt;&lt;PK&gt;&gt;\n  --\n  employee_id : INT &lt;&lt;FK&gt;&gt;\n  type : VARCHAR\n  from_date : DATE\n  to_date : DATE\n  reason : TEXT\n  status : LeaveStatus\n}\n\nentity Trainings {\n  * id : INT &lt;&lt;PK&gt;&gt;\n  --\n  title : VARCHAR\n  description : TEXT\n  date_range : VARCHAR\n}\n\nentity Employee_Trainings {\n  * employee_id : INT &lt;&lt;FK&gt;&gt;\n  * training_id : INT &lt;&lt;FK&gt;&gt;\n  --\n  result : VARCHAR\n}\n\nentity Evaluations {\n  * id : INT &lt;&lt;PK&gt;&gt;\n  --\n  employee_id : INT &lt;&lt;FK&gt;&gt;\n  evaluation_period : VARCHAR\n  attendance_score : DECIMAL\n  reward_score : DECIMAL\n  discipline_score : DECIMAL\n  training_score : DECIMAL\n  performance_score : DECIMAL\n  total_score : DECIMAL\n  rank_in_department : INT\n  rank_in_company : INT\n  vector_summary : VECTOR(358)\n  last_updated : TIMESTAMP\n}\n\nentity Events {\n  * id : INT &lt;&lt;PK&gt;&gt;\n  --\n  employee_id : INT &lt;&lt;FK&gt;&gt;\n  type : EventType\n  title : VARCHAR\n  content : TEXT\n  event_date : DATE\n  summary_vector : VECTOR(358)\n}\n\n&#39; ========== RELATIONSHIPS ==========\n\nBranches ||--o{ Buildings\nBuildings ||--o{ Rooms\nRooms ||--o{ Employees\nRooms ||--o{ Departments\nDepartments ||--o{ Employees\nPositions ||--o{ Employees\nEmployees ||--o{ Contracts\nEmployees ||--o{ Payroll\nEmployees ||--o{ Leaves\nEmployees ||--o{ Evaluations\nEmployees ||--o{ Employee_Trainings\nEmployees ||--o{ Events\nTrainings ||--o{ Employee_Trainings\n\n@enduml\n&quot;,&quot;format&quot;:&quot;svg&quot;}" id="FEocNK-ehfzRATDTSgv6-1">
          <mxCell style="shape=image;noLabel=1;verticalAlign=top;aspect=fixed;imageAspect=0;image=data:image/svg+xml,PHN2ZyB4bWxucz0iaHR0cDovL3d3dy53My5vcmcvMjAwMC9zdmciIHhtbG5zOnhsaW5rPSJodHRwOi8vd3d3LnczLm9yZy8xOTk5L3hsaW5rIiBjb250ZW50U3R5bGVUeXBlPSJ0ZXh0L2NzcyIgZGF0YS1kaWFncmFtLXR5cGU9IkNMQVNTIiBoZWlnaHQ9IjE0NDRweCIgcHJlc2VydmVBc3BlY3RSYXRpbz0ibm9uZSIgc3R5bGU9IndpZHRoOjEyODNweDtoZWlnaHQ6MTQ0NHB4O2JhY2tncm91bmQ6I0ZGRkZGRjsiIHZlcnNpb249IjEuMSIgdmlld0JveD0iMCAwIDEyODMgMTQ0NCIgd2lkdGg9IjEyODNweCIgem9vbUFuZFBhbj0ibWFnbmlmeSI+PGRlZnMvPjxnPjwhLS1jbGFzcyBHZW5kZXItLT48ZyBjbGFzcz0iZW50aXR5IiBkYXRhLWVudGl0eT0iR2VuZGVyIiBkYXRhLXNvdXJjZS1saW5lPSI1IiBkYXRhLXVpZD0iZW50MDAwMiIgaWQ9ImVudGl0eV9HZW5kZXIiPjxyZWN0IGZpbGw9IiNGMUYxRjEiIGhlaWdodD0iODUuOTM3NSIgcng9IjIuNSIgcnk9IjIuNSIgc3R5bGU9InN0cm9rZTojMTgxODE4O3N0cm9rZS13aWR0aDowLjU7IiB3aWR0aD0iNTQiIHg9IjEwMiIgeT0iMTQuNSIvPjx0ZXh0IGZpbGw9IiMwMDAwMDAiIGZvbnQtZmFtaWx5PSJzYW5zLXNlcmlmIiBmb250LXNpemU9IjE0IiBsZW5ndGhBZGp1c3Q9InNwYWNpbmciIHRleHRMZW5ndGg9IjQyIiB4PSIxMDgiIHk9IjMyLjczNDQiPkdlbmRlcjwvdGV4dD48bGluZSBzdHlsZT0ic3Ryb2tlOiMxODE4MTg7c3Ryb2tlLXdpZHRoOjAuNTsiIHgxPSIxMDMiIHgyPSIxNTUiIHkxPSIzOS40ODQ0IiB5Mj0iMzkuNDg0NCIvPjx0ZXh0IGZpbGw9IiMwMDAwMDAiIGZvbnQtZmFtaWx5PSJzYW5zLXNlcmlmIiBmb250LXNpemU9IjE0IiBsZW5ndGhBZGp1c3Q9InNwYWNpbmciIHRleHRMZW5ndGg9IjI4IiB4PSIxMDgiIHk9IjU2LjcxODgiPk1hbGU8L3RleHQ+PHRleHQgZmlsbD0iIzAwMDAwMCIgZm9udC1mYW1pbHk9InNhbnMtc2VyaWYiIGZvbnQtc2l6ZT0iMTQiIGxlbmd0aEFkanVzdD0ic3BhY2luZyIgdGV4dExlbmd0aD0iNDIiIHg9IjEwOCIgeT0iNzEuNzAzMSI+RmVtYWxlPC90ZXh0Pjx0ZXh0IGZpbGw9IiMwMDAwMDAiIGZvbnQtZmFtaWx5PSJzYW5zLXNlcmlmIiBmb250LXNpemU9IjE0IiBsZW5ndGhBZGp1c3Q9InNwYWNpbmciIHRleHRMZW5ndGg9IjM1IiB4PSIxMDgiIHk9Ijg2LjY4NzUiPk90aGVyPC90ZXh0PjxsaW5lIHN0eWxlPSJzdHJva2U6IzE4MTgxODtzdHJva2Utd2lkdGg6MC41OyIgeDE9IjEwMyIgeDI9IjE1NSIgeTE9IjkyLjQzNzUiIHkyPSI5Mi40Mzc1Ii8+PC9nPjwhLS1jbGFzcyBFbXBsb3llZVN0YXR1cy0tPjxnIGNsYXNzPSJlbnRpdHkiIGRhdGEtZW50aXR5PSJFbXBsb3llZVN0YXR1cyIgZGF0YS1zb3VyY2UtbGluZT0iMTEiIGRhdGEtdWlkPSJlbnQwMDAzIiBpZD0iZW50aXR5X0VtcGxveWVlU3RhdHVzIj48cmVjdCBmaWxsPSIjRjFGMUYxIiBoZWlnaHQ9IjEwMC45MjE5IiByeD0iMi41IiByeT0iMi41IiBzdHlsZT0ic3Ryb2tlOiMxODE4MTg7c3Ryb2tlLXdpZHRoOjAuNTsiIHdpZHRoPSIxMDQiIHg9IjE5MSIgeT0iNyIvPjx0ZXh0IGZpbGw9IiMwMDAwMDAiIGZvbnQtZmFtaWx5PSJzYW5zLXNlcmlmIiBmb250LXNpemU9IjE0IiBsZW5ndGhBZGp1c3Q9InNwYWNpbmciIHRleHRMZW5ndGg9Ijk4IiB4PSIxOTQiIHk9IjI1LjIzNDQiPkVtcGxveWVlU3RhdHVzPC90ZXh0PjxsaW5lIHN0eWxlPSJzdHJva2U6IzE4MTgxODtzdHJva2Utd2lkdGg6MC41OyIgeDE9IjE5MiIgeDI9IjI5NCIgeTE9IjMxLjk4NDQiIHkyPSIzMS45ODQ0Ii8+PHRleHQgZmlsbD0iIzAwMDAwMCIgZm9udC1mYW1pbHk9InNhbnMtc2VyaWYiIGZvbnQtc2l6ZT0iMTQiIGxlbmd0aEFkanVzdD0ic3BhY2luZyIgdGV4dExlbmd0aD0iNDIiIHg9IjE5NyIgeT0iNDkuMjE4OCI+QWN0aXZlPC90ZXh0Pjx0ZXh0IGZpbGw9IiMwMDAwMDAiIGZvbnQtZmFtaWx5PSJzYW5zLXNlcmlmIiBmb250LXNpemU9IjE0IiBsZW5ndGhBZGp1c3Q9InNwYWNpbmciIHRleHRMZW5ndGg9IjU2IiB4PSIxOTciIHk9IjY0LjIwMzEiPkluYWN0aXZlPC90ZXh0Pjx0ZXh0IGZpbGw9IiMwMDAwMDAiIGZvbnQtZmFtaWx5PSJzYW5zLXNlcmlmIiBmb250LXNpemU9IjE0IiBsZW5ndGhBZGp1c3Q9InNwYWNpbmciIHRleHRMZW5ndGg9IjQ5IiB4PSIxOTciIHk9Ijc5LjE4NzUiPk9uTGVhdmU8L3RleHQ+PHRleHQgZmlsbD0iIzAwMDAwMCIgZm9udC1mYW1pbHk9InNhbnMtc2VyaWYiIGZvbnQtc2l6ZT0iMTQiIGxlbmd0aEFkanVzdD0ic3BhY2luZyIgdGV4dExlbmd0aD0iNTYiIHg9IjE5NyIgeT0iOTQuMTcxOSI+UmVzaWduZWQ8L3RleHQ+PGxpbmUgc3R5bGU9InN0cm9rZTojMTgxODE4O3N0cm9rZS13aWR0aDowLjU7IiB4MT0iMTkyIiB4Mj0iMjk0IiB5MT0iOTkuOTIxOSIgeTI9Ijk5LjkyMTkiLz48L2c+PCEtLWNsYXNzIENvbnRyYWN0VHlwZS0tPjxnIGNsYXNzPSJlbnRpdHkiIGRhdGEtZW50aXR5PSJDb250cmFjdFR5cGUiIGRhdGEtc291cmNlLWxpbmU9IjE4IiBkYXRhLXVpZD0iZW50MDAwNCIgaWQ9ImVudGl0eV9Db250cmFjdFR5cGUiPjxyZWN0IGZpbGw9IiNGMUYxRjEiIGhlaWdodD0iODUuOTM3NSIgcng9IjIuNSIgcnk9IjIuNSIgc3R5bGU9InN0cm9rZTojMTgxODE4O3N0cm9rZS13aWR0aDowLjU7IiB3aWR0aD0iOTAiIHg9IjMzMCIgeT0iMTQuNSIvPjx0ZXh0IGZpbGw9IiMwMDAwMDAiIGZvbnQtZmFtaWx5PSJzYW5zLXNlcmlmIiBmb250LXNpemU9IjE0IiBsZW5ndGhBZGp1c3Q9InNwYWNpbmciIHRleHRMZW5ndGg9Ijg0IiB4PSIzMzMiIHk9IjMyLjczNDQiPkNvbnRyYWN0VHlwZTwvdGV4dD48bGluZSBzdHlsZT0ic3Ryb2tlOiMxODE4MTg7c3Ryb2tlLXdpZHRoOjAuNTsiIHgxPSIzMzEiIHgyPSI0MTkiIHkxPSIzOS40ODQ0IiB5Mj0iMzkuNDg0NCIvPjx0ZXh0IGZpbGw9IiMwMDAwMDAiIGZvbnQtZmFtaWx5PSJzYW5zLXNlcmlmIiBmb250LXNpemU9IjE0IiBsZW5ndGhBZGp1c3Q9InNwYWNpbmciIHRleHRMZW5ndGg9IjU2IiB4PSIzMzYiIHk9IjU2LjcxODgiPkZ1bGx0aW1lPC90ZXh0Pjx0ZXh0IGZpbGw9IiMwMDAwMDAiIGZvbnQtZmFtaWx5PSJzYW5zLXNlcmlmIiBmb250LXNpemU9IjE0IiBsZW5ndGhBZGp1c3Q9InNwYWNpbmciIHRleHRMZW5ndGg9IjU2IiB4PSIzMzYiIHk9IjcxLjcwMzEiPlBhcnR0aW1lPC90ZXh0Pjx0ZXh0IGZpbGw9IiMwMDAwMDAiIGZvbnQtZmFtaWx5PSJzYW5zLXNlcmlmIiBmb250LXNpemU9IjE0IiBsZW5ndGhBZGp1c3Q9InNwYWNpbmciIHRleHRMZW5ndGg9IjU2IiB4PSIzMzYiIHk9Ijg2LjY4NzUiPkNvbnRyYWN0PC90ZXh0PjxsaW5lIHN0eWxlPSJzdHJva2U6IzE4MTgxODtzdHJva2Utd2lkdGg6MC41OyIgeDE9IjMzMSIgeDI9IjQxOSIgeTE9IjkyLjQzNzUiIHkyPSI5Mi40Mzc1Ii8+PC9nPjwhLS1jbGFzcyBMZWF2ZVN0YXR1cy0tPjxnIGNsYXNzPSJlbnRpdHkiIGRhdGEtZW50aXR5PSJMZWF2ZVN0YXR1cyIgZGF0YS1zb3VyY2UtbGluZT0iMjQiIGRhdGEtdWlkPSJlbnQwMDA1IiBpZD0iZW50aXR5X0xlYXZlU3RhdHVzIj48cmVjdCBmaWxsPSIjRjFGMUYxIiBoZWlnaHQ9Ijg1LjkzNzUiIHJ4PSIyLjUiIHJ5PSIyLjUiIHN0eWxlPSJzdHJva2U6IzE4MTgxODtzdHJva2Utd2lkdGg6MC41OyIgd2lkdGg9IjgzIiB4PSI4Ny41IiB5PSIyNjUuNSIvPjx0ZXh0IGZpbGw9IiMwMDAwMDAiIGZvbnQtZmFtaWx5PSJzYW5zLXNlcmlmIiBmb250LXNpemU9IjE0IiBsZW5ndGhBZGp1c3Q9InNwYWNpbmciIHRleHRMZW5ndGg9Ijc3IiB4PSI5MC41IiB5PSIyODMuNzM0NCI+TGVhdmVTdGF0dXM8L3RleHQ+PGxpbmUgc3R5bGU9InN0cm9rZTojMTgxODE4O3N0cm9rZS13aWR0aDowLjU7IiB4MT0iODguNSIgeDI9IjE2OS41IiB5MT0iMjkwLjQ4NDQiIHkyPSIyOTAuNDg0NCIvPjx0ZXh0IGZpbGw9IiMwMDAwMDAiIGZvbnQtZmFtaWx5PSJzYW5zLXNlcmlmIiBmb250LXNpemU9IjE0IiBsZW5ndGhBZGp1c3Q9InNwYWNpbmciIHRleHRMZW5ndGg9IjQ5IiB4PSI5My41IiB5PSIzMDcuNzE4OCI+UGVuZGluZzwvdGV4dD48dGV4dCBmaWxsPSIjMDAwMDAwIiBmb250LWZhbWlseT0ic2Fucy1zZXJpZiIgZm9udC1zaXplPSIxNCIgbGVuZ3RoQWRqdXN0PSJzcGFjaW5nIiB0ZXh0TGVuZ3RoPSI1NiIgeD0iOTMuNSIgeT0iMzIyLjcwMzEiPkFwcHJvdmVkPC90ZXh0Pjx0ZXh0IGZpbGw9IiMwMDAwMDAiIGZvbnQtZmFtaWx5PSJzYW5zLXNlcmlmIiBmb250LXNpemU9IjE0IiBsZW5ndGhBZGp1c3Q9InNwYWNpbmciIHRleHRMZW5ndGg9IjU2IiB4PSI5My41IiB5PSIzMzcuNjg3NSI+UmVqZWN0ZWQ8L3RleHQ+PGxpbmUgc3R5bGU9InN0cm9rZTojMTgxODE4O3N0cm9rZS13aWR0aDowLjU7IiB4MT0iODguNSIgeDI9IjE2OS41IiB5MT0iMzQzLjQzNzUiIHkyPSIzNDMuNDM3NSIvPjwvZz48IS0tY2xhc3MgRXZlbnRUeXBlLS0+PGcgY2xhc3M9ImVudGl0eSIgZGF0YS1lbnRpdHk9IkV2ZW50VHlwZSIgZGF0YS1zb3VyY2UtbGluZT0iMzAiIGRhdGEtdWlkPSJlbnQwMDA2IiBpZD0iZW50aXR5X0V2ZW50VHlwZSI+PHJlY3QgZmlsbD0iI0YxRjFGMSIgaGVpZ2h0PSI3MC45NTMxIiByeD0iMi41IiByeT0iMi41IiBzdHlsZT0ic3Ryb2tlOiMxODE4MTg7c3Ryb2tlLXdpZHRoOjAuNTsiIHdpZHRoPSI4MiIgeD0iMjA2IiB5PSIyNzMiLz48dGV4dCBmaWxsPSIjMDAwMDAwIiBmb250LWZhbWlseT0ic2Fucy1zZXJpZiIgZm9udC1zaXplPSIxNCIgbGVuZ3RoQWRqdXN0PSJzcGFjaW5nIiB0ZXh0TGVuZ3RoPSI2MyIgeD0iMjE1LjUiIHk9IjI5MS4yMzQ0Ij5FdmVudFR5cGU8L3RleHQ+PGxpbmUgc3R5bGU9InN0cm9rZTojMTgxODE4O3N0cm9rZS13aWR0aDowLjU7IiB4MT0iMjA3IiB4Mj0iMjg3IiB5MT0iMjk3Ljk4NDQiIHkyPSIyOTcuOTg0NCIvPjx0ZXh0IGZpbGw9IiMwMDAwMDAiIGZvbnQtZmFtaWx5PSJzYW5zLXNlcmlmIiBmb250LXNpemU9IjE0IiBsZW5ndGhBZGp1c3Q9InNwYWNpbmciIHRleHRMZW5ndGg9IjQyIiB4PSIyMTIiIHk9IjMxNS4yMTg4Ij5SZXdhcmQ8L3RleHQ+PHRleHQgZmlsbD0iIzAwMDAwMCIgZm9udC1mYW1pbHk9InNhbnMtc2VyaWYiIGZvbnQtc2l6ZT0iMTQiIGxlbmd0aEFkanVzdD0ic3BhY2luZyIgdGV4dExlbmd0aD0iNzAiIHg9IjIxMiIgeT0iMzMwLjIwMzEiPkRpc2NpcGxpbmU8L3RleHQ+PGxpbmUgc3R5bGU9InN0cm9rZTojMTgxODE4O3N0cm9rZS13aWR0aDowLjU7IiB4MT0iMjA3IiB4Mj0iMjg3IiB5MT0iMzM1Ljk1MzEiIHkyPSIzMzUuOTUzMSIvPjwvZz48IS0tY2xhc3MgQnJhbmNoZXMtLT48ZyBjbGFzcz0iZW50aXR5IiBkYXRhLWVudGl0eT0iQnJhbmNoZXMiIGRhdGEtc291cmNlLWxpbmU9IjM3IiBkYXRhLXVpZD0iZW50MDAwNyIgaWQ9ImVudGl0eV9CcmFuY2hlcyI+PHJlY3QgZmlsbD0iI0YxRjFGMSIgaGVpZ2h0PSIxMDAuOTIxOSIgcng9IjIuNSIgcnk9IjIuNSIgc3R5bGU9InN0cm9rZTojMTgxODE4O3N0cm9rZS13aWR0aDowLjU7IiB3aWR0aD0iMTczIiB4PSI0NTUuNSIgeT0iNyIvPjx0ZXh0IGZpbGw9IiMwMDAwMDAiIGZvbnQtZmFtaWx5PSJzYW5zLXNlcmlmIiBmb250LXNpemU9IjE0IiBsZW5ndGhBZGp1c3Q9InNwYWNpbmciIHRleHRMZW5ndGg9IjU2IiB4PSI1MTQiIHk9IjI1LjIzNDQiPkJyYW5jaGVzPC90ZXh0PjxsaW5lIHN0eWxlPSJzdHJva2U6IzE4MTgxODtzdHJva2Utd2lkdGg6MC41OyIgeDE9IjQ1Ni41IiB4Mj0iNjI3LjUiIHkxPSIzMS45ODQ0IiB5Mj0iMzEuOTg0NCIvPjxlbGxpcHNlIGN4PSI0NjYuNSIgY3k9IjQ0Ljk3NjYiIGZpbGw9IiMwMDAwMDAiIHJ4PSIzIiByeT0iMyIgc3R5bGU9InN0cm9rZTojMDAwMDAwO3N0cm9rZS13aWR0aDoxOyIvPjx0ZXh0IGZpbGw9IiMwMDAwMDAiIGZvbnQtZmFtaWx5PSJzYW5zLXNlcmlmIiBmb250LXNpemU9IjE0IiBsZW5ndGhBZGp1c3Q9InNwYWNpbmciIHRleHRMZW5ndGg9IjkxIiB4PSI0NzUuNSIgeT0iNDkuMjE4OCI+aWQgOiBJTlQgJiMxNzE7UEsmIzE4Nzs8L3RleHQ+PGxpbmUgc3R5bGU9InN0cm9rZTojMTgxODE4O3N0cm9rZS13aWR0aDoxOyIgeDE9IjQ1Ni41IiB4Mj0iNjI3LjUiIHkxPSI1NC45Njg4IiB5Mj0iNTQuOTY4OCIvPjx0ZXh0IGZpbGw9IiMwMDAwMDAiIGZvbnQtZmFtaWx5PSJzYW5zLXNlcmlmIiBmb250LXNpemU9IjE0IiBsZW5ndGhBZGp1c3Q9InNwYWNpbmciIHRleHRMZW5ndGg9Ijk4IiB4PSI0NjEuNSIgeT0iNzIuMjAzMSI+bmFtZSA6IFZBUkNIQVI8L3RleHQ+PHRleHQgZmlsbD0iIzAwMDAwMCIgZm9udC1mYW1pbHk9InNhbnMtc2VyaWYiIGZvbnQtc2l6ZT0iMTQiIGxlbmd0aEFkanVzdD0ic3BhY2luZyIgdGV4dExlbmd0aD0iOTgiIHg9IjQ2MS41IiB5PSI4Ny4xODc1Ij5hZGRyZXNzIDogVEVYVDwvdGV4dD48dGV4dCBmaWxsPSIjMDAwMDAwIiBmb250LWZhbWlseT0ic2Fucy1zZXJpZiIgZm9udC1zaXplPSIxNCIgbGVuZ3RoQWRqdXN0PSJzcGFjaW5nIiB0ZXh0TGVuZ3RoPSIxNjEiIHg9IjQ2MS41IiB5PSIxMDIuMTcxOSI+ZXN0YWJsaXNoZWRfZGF0ZSA6IERBVEU8L3RleHQ+PC9nPjwhLS1jbGFzcyBCdWlsZGluZ3MtLT48ZyBjbGFzcz0iZW50aXR5IiBkYXRhLWVudGl0eT0iQnVpbGRpbmdzIiBkYXRhLXNvdXJjZS1saW5lPSI0NSIgZGF0YS11aWQ9ImVudDAwMDgiIGlkPSJlbnRpdHlfQnVpbGRpbmdzIj48cmVjdCBmaWxsPSIjRjFGMUYxIiBoZWlnaHQ9IjI4MC43MzQ0IiByeD0iMi41IiByeT0iMi41IiBzdHlsZT0ic3Ryb2tlOiMxODE4MTg7c3Ryb2tlLXdpZHRoOjAuNTsiIHdpZHRoPSIyNTAiIHg9IjQxNyIgeT0iMTY4Ii8+PHRleHQgZmlsbD0iIzAwMDAwMCIgZm9udC1mYW1pbHk9InNhbnMtc2VyaWYiIGZvbnQtc2l6ZT0iMTQiIGxlbmd0aEFkanVzdD0ic3BhY2luZyIgdGV4dExlbmd0aD0iNjMiIHg9IjUxMC41IiB5PSIxODYuMjM0NCI+QnVpbGRpbmdzPC90ZXh0PjxsaW5lIHN0eWxlPSJzdHJva2U6IzE4MTgxODtzdHJva2Utd2lkdGg6MC41OyIgeDE9IjQxOCIgeDI9IjY2NiIgeTE9IjE5Mi45ODQ0IiB5Mj0iMTkyLjk4NDQiLz48ZWxsaXBzZSBjeD0iNDI4IiBjeT0iMjA1Ljk3NjYiIGZpbGw9IiMwMDAwMDAiIHJ4PSIzIiByeT0iMyIgc3R5bGU9InN0cm9rZTojMDAwMDAwO3N0cm9rZS13aWR0aDoxOyIvPjx0ZXh0IGZpbGw9IiMwMDAwMDAiIGZvbnQtZmFtaWx5PSJzYW5zLXNlcmlmIiBmb250LXNpemU9IjE0IiBsZW5ndGhBZGp1c3Q9InNwYWNpbmciIHRleHRMZW5ndGg9IjkxIiB4PSI0MzciIHk9IjIxMC4yMTg4Ij5pZCA6IElOVCAmIzE3MTtQSyYjMTg3OzwvdGV4dD48bGluZSBzdHlsZT0ic3Ryb2tlOiMxODE4MTg7c3Ryb2tlLXdpZHRoOjE7IiB4MT0iNDE4IiB4Mj0iNjY2IiB5MT0iMjE1Ljk2ODgiIHkyPSIyMTUuOTY4OCIvPjx0ZXh0IGZpbGw9IiMwMDAwMDAiIGZvbnQtZmFtaWx5PSJzYW5zLXNlcmlmIiBmb250LXNpemU9IjE0IiBsZW5ndGhBZGp1c3Q9InNwYWNpbmciIHRleHRMZW5ndGg9IjE0MCIgeD0iNDIzIiB5PSIyMzMuMjAzMSI+YnJhbmNoX2lkIDogSU5UICYjMTcxO0ZLJiMxODc7PC90ZXh0Pjx0ZXh0IGZpbGw9IiMwMDAwMDAiIGZvbnQtZmFtaWx5PSJzYW5zLXNlcmlmIiBmb250LXNpemU9IjE0IiBsZW5ndGhBZGp1c3Q9InNwYWNpbmciIHRleHRMZW5ndGg9Ijk4IiB4PSI0MjMiIHk9IjI0OC4xODc1Ij5uYW1lIDogVkFSQ0hBUjwvdGV4dD48dGV4dCBmaWxsPSIjMDAwMDAwIiBmb250LWZhbWlseT0ic2Fucy1zZXJpZiIgZm9udC1zaXplPSIxNCIgbGVuZ3RoQWRqdXN0PSJzcGFjaW5nIiB0ZXh0TGVuZ3RoPSI5OCIgeD0iNDIzIiB5PSIyNjMuMTcxOSI+YWRkcmVzcyA6IFRFWFQ8L3RleHQ+PHRleHQgZmlsbD0iIzAwMDAwMCIgZm9udC1mYW1pbHk9InNhbnMtc2VyaWYiIGZvbnQtc2l6ZT0iMTQiIGxlbmd0aEFkanVzdD0ic3BhY2luZyIgdGV4dExlbmd0aD0iOTEiIHg9IjQyMyIgeT0iMjc4LjE1NjMiPmxhdCA6IERFQ0lNQUw8L3RleHQ+PHRleHQgZmlsbD0iIzAwMDAwMCIgZm9udC1mYW1pbHk9InNhbnMtc2VyaWYiIGZvbnQtc2l6ZT0iMTQiIGxlbmd0aEFkanVzdD0ic3BhY2luZyIgdGV4dExlbmd0aD0iOTEiIHg9IjQyMyIgeT0iMjkzLjE0MDYiPmxuZyA6IERFQ0lNQUw8L3RleHQ+PHRleHQgZmlsbD0iIzAwMDAwMCIgZm9udC1mYW1pbHk9InNhbnMtc2VyaWYiIGZvbnQtc2l6ZT0iMTQiIGxlbmd0aEFkanVzdD0ic3BhY2luZyIgdGV4dExlbmd0aD0iMjM4IiB4PSI0MjMiIHk9IjMwOC4xMjUiPmZvb3RwcmludCA6IGdlb21ldHJ5KFBPTFlHT04sNDMyNik8L3RleHQ+PHRleHQgZmlsbD0iIzAwMDAwMCIgZm9udC1mYW1pbHk9InNhbnMtc2VyaWYiIGZvbnQtc2l6ZT0iMTQiIGxlbmd0aEFkanVzdD0ic3BhY2luZyIgdGV4dExlbmd0aD0iMTE5IiB4PSI0MjMiIHk9IjMyMy4xMDk0Ij5mbG9vcl9jb3VudCA6IElOVDwvdGV4dD48dGV4dCBmaWxsPSIjMDAwMDAwIiBmb250LWZhbWlseT0ic2Fucy1zZXJpZiIgZm9udC1zaXplPSIxNCIgbGVuZ3RoQWRqdXN0PSJzcGFjaW5nIiB0ZXh0TGVuZ3RoPSIxNjgiIHg9IjQyMyIgeT0iMzM4LjA5MzgiPmZsb29yX2hlaWdodF9tIDogREVDSU1BTDwvdGV4dD48dGV4dCBmaWxsPSIjMDAwMDAwIiBmb250LWZhbWlseT0ic2Fucy1zZXJpZiIgZm9udC1zaXplPSIxNCIgbGVuZ3RoQWRqdXN0PSJzcGFjaW5nIiB0ZXh0TGVuZ3RoPSIxNjgiIHg9IjQyMyIgeT0iMzUzLjA3ODEiPnRvdGFsX2hlaWdodF9tIDogREVDSU1BTDwvdGV4dD48dGV4dCBmaWxsPSIjMDAwMDAwIiBmb250LWZhbWlseT0ic2Fucy1zZXJpZiIgZm9udC1zaXplPSIxNCIgbGVuZ3RoQWRqdXN0PSJzcGFjaW5nIiB0ZXh0TGVuZ3RoPSIxMTkiIHg9IjQyMyIgeT0iMzY4LjA2MjUiPmFyZWFfbTIgOiBERUNJTUFMPC90ZXh0Pjx0ZXh0IGZpbGw9IiMwMDAwMDAiIGZvbnQtZmFtaWx5PSJzYW5zLXNlcmlmIiBmb250LXNpemU9IjE0IiBsZW5ndGhBZGp1c3Q9InNwYWNpbmciIHRleHRMZW5ndGg9IjE0MCIgeD0iNDIzIiB5PSIzODMuMDQ2OSI+Y29sb3JfY29kZSA6IFZBUkNIQVI8L3RleHQ+PHRleHQgZmlsbD0iIzAwMDAwMCIgZm9udC1mYW1pbHk9InNhbnMtc2VyaWYiIGZvbnQtc2l6ZT0iMTQiIGxlbmd0aEFkanVzdD0ic3BhY2luZyIgdGV4dExlbmd0aD0iMTU0IiB4PSI0MjMiIHk9IjM5OC4wMzEzIj5tYW5hZ2VyX25hbWUgOiBWQVJDSEFSPC90ZXh0Pjx0ZXh0IGZpbGw9IiMwMDAwMDAiIGZvbnQtZmFtaWx5PSJzYW5zLXNlcmlmIiBmb250LXNpemU9IjE0IiBsZW5ndGhBZGp1c3Q9InNwYWNpbmciIHRleHRMZW5ndGg9IjEzMyIgeD0iNDIzIiB5PSI0MTMuMDE1NiI+aW1hZ2VfdXJsIDogVkFSQ0hBUjwvdGV4dD48dGV4dCBmaWxsPSIjMDAwMDAwIiBmb250LWZhbWlseT0ic2Fucy1zZXJpZiIgZm9udC1zaXplPSIxNCIgbGVuZ3RoQWRqdXN0PSJzcGFjaW5nIiB0ZXh0TGVuZ3RoPSIxNTQiIHg9IjQyMyIgeT0iNDI4Ij5tb2RlbF8zZF91cmwgOiBWQVJDSEFSPC90ZXh0Pjx0ZXh0IGZpbGw9IiMwMDAwMDAiIGZvbnQtZmFtaWx5PSJzYW5zLXNlcmlmIiBmb250LXNpemU9IjE0IiBsZW5ndGhBZGp1c3Q9InNwYWNpbmciIHRleHRMZW5ndGg9IjE0NyIgeD0iNDIzIiB5PSI0NDIuOTg0NCI+dGV4dHVyZV91cmwgOiBWQVJDSEFSPC90ZXh0PjwvZz48IS0tY2xhc3MgUm9vbXMtLT48ZyBjbGFzcz0iZW50aXR5IiBkYXRhLWVudGl0eT0iUm9vbXMiIGRhdGEtc291cmNlLWxpbmU9IjY1IiBkYXRhLXVpZD0iZW50MDAwOSIgaWQ9ImVudGl0eV9Sb29tcyI+PHJlY3QgZmlsbD0iI0YxRjFGMSIgaGVpZ2h0PSIxNDUuODc1IiByeD0iMi41IiByeT0iMi41IiBzdHlsZT0ic3Ryb2tlOiMxODE4MTg7c3Ryb2tlLXdpZHRoOjAuNTsiIHdpZHRoPSIxODAiIHg9IjQ1MiIgeT0iNTA5Ii8+PHRleHQgZmlsbD0iIzAwMDAwMCIgZm9udC1mYW1pbHk9InNhbnMtc2VyaWYiIGZvbnQtc2l6ZT0iMTQiIGxlbmd0aEFkanVzdD0ic3BhY2luZyIgdGV4dExlbmd0aD0iMzUiIHg9IjUyNC41IiB5PSI1MjcuMjM0NCI+Um9vbXM8L3RleHQ+PGxpbmUgc3R5bGU9InN0cm9rZTojMTgxODE4O3N0cm9rZS13aWR0aDowLjU7IiB4MT0iNDUzIiB4Mj0iNjMxIiB5MT0iNTMzLjk4NDQiIHkyPSI1MzMuOTg0NCIvPjxlbGxpcHNlIGN4PSI0NjMiIGN5PSI1NDYuOTc2NiIgZmlsbD0iIzAwMDAwMCIgcng9IjMiIHJ5PSIzIiBzdHlsZT0ic3Ryb2tlOiMwMDAwMDA7c3Ryb2tlLXdpZHRoOjE7Ii8+PHRleHQgZmlsbD0iIzAwMDAwMCIgZm9udC1mYW1pbHk9InNhbnMtc2VyaWYiIGZvbnQtc2l6ZT0iMTQiIGxlbmd0aEFkanVzdD0ic3BhY2luZyIgdGV4dExlbmd0aD0iOTEiIHg9IjQ3MiIgeT0iNTUxLjIxODgiPmlkIDogSU5UICYjMTcxO1BLJiMxODc7PC90ZXh0PjxsaW5lIHN0eWxlPSJzdHJva2U6IzE4MTgxODtzdHJva2Utd2lkdGg6MTsiIHgxPSI0NTMiIHgyPSI2MzEiIHkxPSI1NTYuOTY4OCIgeTI9IjU1Ni45Njg4Ii8+PHRleHQgZmlsbD0iIzAwMDAwMCIgZm9udC1mYW1pbHk9InNhbnMtc2VyaWYiIGZvbnQtc2l6ZT0iMTQiIGxlbmd0aEFkanVzdD0ic3BhY2luZyIgdGV4dExlbmd0aD0iMTU0IiB4PSI0NTgiIHk9IjU3NC4yMDMxIj5idWlsZGluZ19pZCA6IElOVCAmIzE3MTtGSyYjMTg3OzwvdGV4dD48dGV4dCBmaWxsPSIjMDAwMDAwIiBmb250LWZhbWlseT0ic2Fucy1zZXJpZiIgZm9udC1zaXplPSIxNCIgbGVuZ3RoQWRqdXN0PSJzcGFjaW5nIiB0ZXh0TGVuZ3RoPSI5OCIgeD0iNDU4IiB5PSI1ODkuMTg3NSI+bmFtZSA6IFZBUkNIQVI8L3RleHQ+PHRleHQgZmlsbD0iIzAwMDAwMCIgZm9udC1mYW1pbHk9InNhbnMtc2VyaWYiIGZvbnQtc2l6ZT0iMTQiIGxlbmd0aEFkanVzdD0ic3BhY2luZyIgdGV4dExlbmd0aD0iNzciIHg9IjQ1OCIgeT0iNjA0LjE3MTkiPmZsb29yIDogSU5UPC90ZXh0Pjx0ZXh0IGZpbGw9IiMwMDAwMDAiIGZvbnQtZmFtaWx5PSJzYW5zLXNlcmlmIiBmb250LXNpemU9IjE0IiBsZW5ndGhBZGp1c3Q9InNwYWNpbmciIHRleHRMZW5ndGg9IjExOSIgeD0iNDU4IiB5PSI2MTkuMTU2MyI+YXJlYV9tMiA6IERFQ0lNQUw8L3RleHQ+PHRleHQgZmlsbD0iIzAwMDAwMCIgZm9udC1mYW1pbHk9InNhbnMtc2VyaWYiIGZvbnQtc2l6ZT0iMTQiIGxlbmd0aEFkanVzdD0ic3BhY2luZyIgdGV4dExlbmd0aD0iMTQwIiB4PSI0NTgiIHk9IjYzNC4xNDA2Ij51c2FnZV90eXBlIDogVkFSQ0hBUjwvdGV4dD48dGV4dCBmaWxsPSIjMDAwMDAwIiBmb250LWZhbWlseT0ic2Fucy1zZXJpZiIgZm9udC1zaXplPSIxNCIgbGVuZ3RoQWRqdXN0PSJzcGFjaW5nIiB0ZXh0TGVuZ3RoPSIxNjgiIHg9IjQ1OCIgeT0iNjQ5LjEyNSI+ZGVwYXJ0bWVudF9pZCA6IElOVCAmIzE3MTtGSyYjMTg3OzwvdGV4dD48L2c+PCEtLWNsYXNzIERlcGFydG1lbnRzLS0+PGcgY2xhc3M9ImVudGl0eSIgZGF0YS1lbnRpdHk9IkRlcGFydG1lbnRzIiBkYXRhLXNvdXJjZS1saW5lPSI3NiIgZGF0YS11aWQ9ImVudDAwMTAiIGlkPSJlbnRpdHlfRGVwYXJ0bWVudHMiPjxyZWN0IGZpbGw9IiNGMUYxRjEiIGhlaWdodD0iODUuOTM3NSIgcng9IjIuNSIgcnk9IjIuNSIgc3R5bGU9InN0cm9rZTojMTgxODE4O3N0cm9rZS13aWR0aDowLjU7IiB3aWR0aD0iMTM4IiB4PSI0MTIiIHk9IjcyMi41Ii8+PHRleHQgZmlsbD0iIzAwMDAwMCIgZm9udC1mYW1pbHk9InNhbnMtc2VyaWYiIGZvbnQtc2l6ZT0iMTQiIGxlbmd0aEFkanVzdD0ic3BhY2luZyIgdGV4dExlbmd0aD0iNzciIHg9IjQ0Mi41IiB5PSI3NDAuNzM0NCI+RGVwYXJ0bWVudHM8L3RleHQ+PGxpbmUgc3R5bGU9InN0cm9rZTojMTgxODE4O3N0cm9rZS13aWR0aDowLjU7IiB4MT0iNDEzIiB4Mj0iNTQ5IiB5MT0iNzQ3LjQ4NDQiIHkyPSI3NDcuNDg0NCIvPjxlbGxpcHNlIGN4PSI0MjMiIGN5PSI3NjAuNDc2NiIgZmlsbD0iIzAwMDAwMCIgcng9IjMiIHJ5PSIzIiBzdHlsZT0ic3Ryb2tlOiMwMDAwMDA7c3Ryb2tlLXdpZHRoOjE7Ii8+PHRleHQgZmlsbD0iIzAwMDAwMCIgZm9udC1mYW1pbHk9InNhbnMtc2VyaWYiIGZvbnQtc2l6ZT0iMTQiIGxlbmd0aEFkanVzdD0ic3BhY2luZyIgdGV4dExlbmd0aD0iOTEiIHg9IjQzMiIgeT0iNzY0LjcxODgiPmlkIDogSU5UICYjMTcxO1BLJiMxODc7PC90ZXh0PjxsaW5lIHN0eWxlPSJzdHJva2U6IzE4MTgxODtzdHJva2Utd2lkdGg6MTsiIHgxPSI0MTMiIHgyPSI1NDkiIHkxPSI3NzAuNDY4OCIgeTI9Ijc3MC40Njg4Ii8+PHRleHQgZmlsbD0iIzAwMDAwMCIgZm9udC1mYW1pbHk9InNhbnMtc2VyaWYiIGZvbnQtc2l6ZT0iMTQiIGxlbmd0aEFkanVzdD0ic3BhY2luZyIgdGV4dExlbmd0aD0iOTgiIHg9IjQxOCIgeT0iNzg3LjcwMzEiPm5hbWUgOiBWQVJDSEFSPC90ZXh0Pjx0ZXh0IGZpbGw9IiMwMDAwMDAiIGZvbnQtZmFtaWx5PSJzYW5zLXNlcmlmIiBmb250LXNpemU9IjE0IiBsZW5ndGhBZGp1c3Q9InNwYWNpbmciIHRleHRMZW5ndGg9IjEyNiIgeD0iNDE4IiB5PSI4MDIuNjg3NSI+ZGVzY3JpcHRpb24gOiBURVhUPC90ZXh0PjwvZz48IS0tY2xhc3MgUG9zaXRpb25zLS0+PGcgY2xhc3M9ImVudGl0eSIgZGF0YS1lbnRpdHk9IlBvc2l0aW9ucyIgZGF0YS1zb3VyY2UtbGluZT0iODMiIGRhdGEtdWlkPSJlbnQwMDExIiBpZD0iZW50aXR5X1Bvc2l0aW9ucyI+PHJlY3QgZmlsbD0iI0YxRjFGMSIgaGVpZ2h0PSIxMDAuOTIxOSIgcng9IjIuNSIgcnk9IjIuNSIgc3R5bGU9InN0cm9rZTojMTgxODE4O3N0cm9rZS13aWR0aDowLjU7IiB3aWR0aD0iMTU5IiB4PSI2NTYuNSIgeT0iNzE1Ii8+PHRleHQgZmlsbD0iIzAwMDAwMCIgZm9udC1mYW1pbHk9InNhbnMtc2VyaWYiIGZvbnQtc2l6ZT0iMTQiIGxlbmd0aEFkanVzdD0ic3BhY2luZyIgdGV4dExlbmd0aD0iNjMiIHg9IjcwNC41IiB5PSI3MzMuMjM0NCI+UG9zaXRpb25zPC90ZXh0PjxsaW5lIHN0eWxlPSJzdHJva2U6IzE4MTgxODtzdHJva2Utd2lkdGg6MC41OyIgeDE9IjY1Ny41IiB4Mj0iODE0LjUiIHkxPSI3MzkuOTg0NCIgeTI9IjczOS45ODQ0Ii8+PGVsbGlwc2UgY3g9IjY2Ny41IiBjeT0iNzUyLjk3NjYiIGZpbGw9IiMwMDAwMDAiIHJ4PSIzIiByeT0iMyIgc3R5bGU9InN0cm9rZTojMDAwMDAwO3N0cm9rZS13aWR0aDoxOyIvPjx0ZXh0IGZpbGw9IiMwMDAwMDAiIGZvbnQtZmFtaWx5PSJzYW5zLXNlcmlmIiBmb250LXNpemU9IjE0IiBsZW5ndGhBZGp1c3Q9InNwYWNpbmciIHRleHRMZW5ndGg9IjkxIiB4PSI2NzYuNSIgeT0iNzU3LjIxODgiPmlkIDogSU5UICYjMTcxO1BLJiMxODc7PC90ZXh0PjxsaW5lIHN0eWxlPSJzdHJva2U6IzE4MTgxODtzdHJva2Utd2lkdGg6MTsiIHgxPSI2NTcuNSIgeDI9IjgxNC41IiB5MT0iNzYyLjk2ODgiIHkyPSI3NjIuOTY4OCIvPjx0ZXh0IGZpbGw9IiMwMDAwMDAiIGZvbnQtZmFtaWx5PSJzYW5zLXNlcmlmIiBmb250LXNpemU9IjE0IiBsZW5ndGhBZGp1c3Q9InNwYWNpbmciIHRleHRMZW5ndGg9IjEwNSIgeD0iNjYyLjUiIHk9Ijc4MC4yMDMxIj50aXRsZSA6IFZBUkNIQVI8L3RleHQ+PHRleHQgZmlsbD0iIzAwMDAwMCIgZm9udC1mYW1pbHk9InNhbnMtc2VyaWYiIGZvbnQtc2l6ZT0iMTQiIGxlbmd0aEFkanVzdD0ic3BhY2luZyIgdGV4dExlbmd0aD0iMTA1IiB4PSI2NjIuNSIgeT0iNzk1LjE4NzUiPmxldmVsIDogVkFSQ0hBUjwvdGV4dD48dGV4dCBmaWxsPSIjMDAwMDAwIiBmb250LWZhbWlseT0ic2Fucy1zZXJpZiIgZm9udC1zaXplPSIxNCIgbGVuZ3RoQWRqdXN0PSJzcGFjaW5nIiB0ZXh0TGVuZ3RoPSIxNDciIHg9IjY2Mi41IiB5PSI4MTAuMTcxOSI+YmFzZV9zYWxhcnkgOiBERUNJTUFMPC90ZXh0PjwvZz48IS0tY2xhc3MgRW1wbG95ZWVzLS0+PGcgY2xhc3M9ImVudGl0eSIgZGF0YS1lbnRpdHk9IkVtcGxveWVlcyIgZGF0YS1zb3VyY2UtbGluZT0iOTEiIGRhdGEtdWlkPSJlbnQwMDEyIiBpZD0iZW50aXR5X0VtcGxveWVlcyI+PHJlY3QgZmlsbD0iI0YxRjFGMSIgaGVpZ2h0PSIyNjUuNzUiIHJ4PSIyLjUiIHJ5PSIyLjUiIHN0eWxlPSJzdHJva2U6IzE4MTgxODtzdHJva2Utd2lkdGg6MC41OyIgd2lkdGg9IjIxNSIgeD0iNDk1LjUiIHk9Ijg3NiIvPjx0ZXh0IGZpbGw9IiMwMDAwMDAiIGZvbnQtZmFtaWx5PSJzYW5zLXNlcmlmIiBmb250LXNpemU9IjE0IiBsZW5ndGhBZGp1c3Q9InNwYWNpbmciIHRleHRMZW5ndGg9IjYzIiB4PSI1NzEuNSIgeT0iODk0LjIzNDQiPkVtcGxveWVlczwvdGV4dD48bGluZSBzdHlsZT0ic3Ryb2tlOiMxODE4MTg7c3Ryb2tlLXdpZHRoOjAuNTsiIHgxPSI0OTYuNSIgeDI9IjcwOS41IiB5MT0iOTAwLjk4NDQiIHkyPSI5MDAuOTg0NCIvPjxlbGxpcHNlIGN4PSI1MDYuNSIgY3k9IjkxMy45NzY2IiBmaWxsPSIjMDAwMDAwIiByeD0iMyIgcnk9IjMiIHN0eWxlPSJzdHJva2U6IzAwMDAwMDtzdHJva2Utd2lkdGg6MTsiLz48dGV4dCBmaWxsPSIjMDAwMDAwIiBmb250LWZhbWlseT0ic2Fucy1zZXJpZiIgZm9udC1zaXplPSIxNCIgbGVuZ3RoQWRqdXN0PSJzcGFjaW5nIiB0ZXh0TGVuZ3RoPSI5MSIgeD0iNTE1LjUiIHk9IjkxOC4yMTg4Ij5pZCA6IElOVCAmIzE3MTtQSyYjMTg3OzwvdGV4dD48bGluZSBzdHlsZT0ic3Ryb2tlOiMxODE4MTg7c3Ryb2tlLXdpZHRoOjE7IiB4MT0iNDk2LjUiIHgyPSI3MDkuNSIgeTE9IjkyMy45Njg4IiB5Mj0iOTIzLjk2ODgiLz48dGV4dCBmaWxsPSIjMDAwMDAwIiBmb250LWZhbWlseT0ic2Fucy1zZXJpZiIgZm9udC1zaXplPSIxNCIgbGVuZ3RoQWRqdXN0PSJzcGFjaW5nIiB0ZXh0TGVuZ3RoPSIxMzMiIHg9IjUwMS41IiB5PSI5NDEuMjAzMSI+ZnVsbF9uYW1lIDogVkFSQ0hBUjwvdGV4dD48dGV4dCBmaWxsPSIjMDAwMDAwIiBmb250LWZhbWlseT0ic2Fucy1zZXJpZiIgZm9udC1zaXplPSIxNCIgbGVuZ3RoQWRqdXN0PSJzcGFjaW5nIiB0ZXh0TGVuZ3RoPSIxMDUiIHg9IjUwMS41IiB5PSI5NTYuMTg3NSI+Z2VuZGVyIDogR2VuZGVyPC90ZXh0Pjx0ZXh0IGZpbGw9IiMwMDAwMDAiIGZvbnQtZmFtaWx5PSJzYW5zLXNlcmlmIiBmb250LXNpemU9IjE0IiBsZW5ndGhBZGp1c3Q9InNwYWNpbmciIHRleHRMZW5ndGg9IjcwIiB4PSI1MDEuNSIgeT0iOTcxLjE3MTkiPmRvYiA6IERBVEU8L3RleHQ+PHRleHQgZmlsbD0iIzAwMDAwMCIgZm9udC1mYW1pbHk9InNhbnMtc2VyaWYiIGZvbnQtc2l6ZT0iMTQiIGxlbmd0aEFkanVzdD0ic3BhY2luZyIgdGV4dExlbmd0aD0iMTA1IiB4PSI1MDEuNSIgeT0iOTg2LjE1NjMiPnBob25lIDogVkFSQ0hBUjwvdGV4dD48dGV4dCBmaWxsPSIjMDAwMDAwIiBmb250LWZhbWlseT0ic2Fucy1zZXJpZiIgZm9udC1zaXplPSIxNCIgbGVuZ3RoQWRqdXN0PSJzcGFjaW5nIiB0ZXh0TGVuZ3RoPSIxMDUiIHg9IjUwMS41IiB5PSIxMDAxLjE0MDYiPmVtYWlsIDogVkFSQ0hBUjwvdGV4dD48dGV4dCBmaWxsPSIjMDAwMDAwIiBmb250LWZhbWlseT0ic2Fucy1zZXJpZiIgZm9udC1zaXplPSIxNCIgbGVuZ3RoQWRqdXN0PSJzcGFjaW5nIiB0ZXh0TGVuZ3RoPSIxNjgiIHg9IjUwMS41IiB5PSIxMDE2LjEyNSI+ZGVwYXJ0bWVudF9pZCA6IElOVCAmIzE3MTtGSyYjMTg3OzwvdGV4dD48dGV4dCBmaWxsPSIjMDAwMDAwIiBmb250LWZhbWlseT0ic2Fucy1zZXJpZiIgZm9udC1zaXplPSIxNCIgbGVuZ3RoQWRqdXN0PSJzcGFjaW5nIiB0ZXh0TGVuZ3RoPSIxNTQiIHg9IjUwMS41IiB5PSIxMDMxLjEwOTQiPnBvc2l0aW9uX2lkIDogSU5UICYjMTcxO0ZLJiMxODc7PC90ZXh0Pjx0ZXh0IGZpbGw9IiMwMDAwMDAiIGZvbnQtZmFtaWx5PSJzYW5zLXNlcmlmIiBmb250LXNpemU9IjE0IiBsZW5ndGhBZGp1c3Q9InNwYWNpbmciIHRleHRMZW5ndGg9IjEyNiIgeD0iNTAxLjUiIHk9IjEwNDYuMDkzOCI+cm9vbV9pZCA6IElOVCAmIzE3MTtGSyYjMTg3OzwvdGV4dD48dGV4dCBmaWxsPSIjMDAwMDAwIiBmb250LWZhbWlseT0ic2Fucy1zZXJpZiIgZm9udC1zaXplPSIxNCIgbGVuZ3RoQWRqdXN0PSJzcGFjaW5nIiB0ZXh0TGVuZ3RoPSIxMjYiIHg9IjUwMS41IiB5PSIxMDYxLjA3ODEiPmZsb29yX251bWJlciA6IElOVDwvdGV4dD48dGV4dCBmaWxsPSIjMDAwMDAwIiBmb250LWZhbWlseT0ic2Fucy1zZXJpZiIgZm9udC1zaXplPSIxNCIgbGVuZ3RoQWRqdXN0PSJzcGFjaW5nIiB0ZXh0TGVuZ3RoPSIxMzMiIHg9IjUwMS41IiB5PSIxMDc2LjA2MjUiPnJvb21fY29kZSA6IFZBUkNIQVI8L3RleHQ+PHRleHQgZmlsbD0iIzAwMDAwMCIgZm9udC1mYW1pbHk9InNhbnMtc2VyaWYiIGZvbnQtc2l6ZT0iMTQiIGxlbmd0aEFkanVzdD0ic3BhY2luZyIgdGV4dExlbmd0aD0iMTEyIiB4PSI1MDEuNSIgeT0iMTA5MS4wNDY5Ij5oaXJlX2RhdGUgOiBEQVRFPC90ZXh0Pjx0ZXh0IGZpbGw9IiMwMDAwMDAiIGZvbnQtZmFtaWx5PSJzYW5zLXNlcmlmIiBmb250LXNpemU9IjE0IiBsZW5ndGhBZGp1c3Q9InNwYWNpbmciIHRleHRMZW5ndGg9IjE2MSIgeD0iNTAxLjUiIHk9IjExMDYuMDMxMyI+c3RhdHVzIDogRW1wbG95ZWVTdGF0dXM8L3RleHQ+PHRleHQgZmlsbD0iIzAwMDAwMCIgZm9udC1mYW1pbHk9InNhbnMtc2VyaWYiIGZvbnQtc2l6ZT0iMTQiIGxlbmd0aEFkanVzdD0ic3BhY2luZyIgdGV4dExlbmd0aD0iMTQwIiB4PSI1MDEuNSIgeT0iMTEyMS4wMTU2Ij5hdmF0YXJfdXJsIDogVkFSQ0hBUjwvdGV4dD48dGV4dCBmaWxsPSIjMDAwMDAwIiBmb250LWZhbWlseT0ic2Fucy1zZXJpZiIgZm9udC1zaXplPSIxNCIgbGVuZ3RoQWRqdXN0PSJzcGFjaW5nIiB0ZXh0TGVuZ3RoPSIyMDMiIHg9IjUwMS41IiB5PSIxMTM2Ij5sb2NhdGlvbl92ZWN0b3IgOiBWRUNUT1IoMzU4KTwvdGV4dD48L2c+PCEtLWNsYXNzIENvbnRyYWN0cy0tPjxnIGNsYXNzPSJlbnRpdHkiIGRhdGEtZW50aXR5PSJDb250cmFjdHMiIGRhdGEtc291cmNlLWxpbmU9IjExMCIgZGF0YS11aWQ9ImVudDAwMTMiIGlkPSJlbnRpdHlfQ29udHJhY3RzIj48cmVjdCBmaWxsPSIjRjFGMUYxIiBoZWlnaHQ9IjEzMC44OTA2IiByeD0iMi41IiByeT0iMi41IiBzdHlsZT0ic3Ryb2tlOiMxODE4MTg7c3Ryb2tlLXdpZHRoOjAuNTsiIHdpZHRoPSIxNjYiIHg9IjciIHk9IjEyNTQuNSIvPjx0ZXh0IGZpbGw9IiMwMDAwMDAiIGZvbnQtZmFtaWx5PSJzYW5zLXNlcmlmIiBmb250LXNpemU9IjE0IiBsZW5ndGhBZGp1c3Q9InNwYWNpbmciIHRleHRMZW5ndGg9IjYzIiB4PSI1OC41IiB5PSIxMjcyLjczNDQiPkNvbnRyYWN0czwvdGV4dD48bGluZSBzdHlsZT0ic3Ryb2tlOiMxODE4MTg7c3Ryb2tlLXdpZHRoOjAuNTsiIHgxPSI4IiB4Mj0iMTcyIiB5MT0iMTI3OS40ODQ0IiB5Mj0iMTI3OS40ODQ0Ii8+PGVsbGlwc2UgY3g9IjE4IiBjeT0iMTI5Mi40NzY2IiBmaWxsPSIjMDAwMDAwIiByeD0iMyIgcnk9IjMiIHN0eWxlPSJzdHJva2U6IzAwMDAwMDtzdHJva2Utd2lkdGg6MTsiLz48dGV4dCBmaWxsPSIjMDAwMDAwIiBmb250LWZhbWlseT0ic2Fucy1zZXJpZiIgZm9udC1zaXplPSIxNCIgbGVuZ3RoQWRqdXN0PSJzcGFjaW5nIiB0ZXh0TGVuZ3RoPSI5MSIgeD0iMjciIHk9IjEyOTYuNzE4OCI+aWQgOiBJTlQgJiMxNzE7UEsmIzE4Nzs8L3RleHQ+PGxpbmUgc3R5bGU9InN0cm9rZTojMTgxODE4O3N0cm9rZS13aWR0aDoxOyIgeDE9IjgiIHgyPSIxNzIiIHkxPSIxMzAyLjQ2ODgiIHkyPSIxMzAyLjQ2ODgiLz48dGV4dCBmaWxsPSIjMDAwMDAwIiBmb250LWZhbWlseT0ic2Fucy1zZXJpZiIgZm9udC1zaXplPSIxNCIgbGVuZ3RoQWRqdXN0PSJzcGFjaW5nIiB0ZXh0TGVuZ3RoPSIxNTQiIHg9IjEzIiB5PSIxMzE5LjcwMzEiPmVtcGxveWVlX2lkIDogSU5UICYjMTcxO0ZLJiMxODc7PC90ZXh0Pjx0ZXh0IGZpbGw9IiMwMDAwMDAiIGZvbnQtZmFtaWx5PSJzYW5zLXNlcmlmIiBmb250LXNpemU9IjE0IiBsZW5ndGhBZGp1c3Q9InNwYWNpbmciIHRleHRMZW5ndGg9IjEzMyIgeD0iMTMiIHk9IjEzMzQuNjg3NSI+dHlwZSA6IENvbnRyYWN0VHlwZTwvdGV4dD48dGV4dCBmaWxsPSIjMDAwMDAwIiBmb250LWZhbWlseT0ic2Fucy1zZXJpZiIgZm9udC1zaXplPSIxNCIgbGVuZ3RoQWRqdXN0PSJzcGFjaW5nIiB0ZXh0TGVuZ3RoPSIxMTkiIHg9IjEzIiB5PSIxMzQ5LjY3MTkiPnN0YXJ0X2RhdGUgOiBEQVRFPC90ZXh0Pjx0ZXh0IGZpbGw9IiMwMDAwMDAiIGZvbnQtZmFtaWx5PSJzYW5zLXNlcmlmIiBmb250LXNpemU9IjE0IiBsZW5ndGhBZGp1c3Q9InNwYWNpbmciIHRleHRMZW5ndGg9IjEwNSIgeD0iMTMiIHk9IjEzNjQuNjU2MyI+ZW5kX2RhdGUgOiBEQVRFPC90ZXh0Pjx0ZXh0IGZpbGw9IiMwMDAwMDAiIGZvbnQtZmFtaWx5PSJzYW5zLXNlcmlmIiBmb250LXNpemU9IjE0IiBsZW5ndGhBZGp1c3Q9InNwYWNpbmciIHRleHRMZW5ndGg9IjE0NyIgeD0iMTMiIHk9IjEzNzkuNjQwNiI+YmFzZV9zYWxhcnkgOiBERUNJTUFMPC90ZXh0PjwvZz48IS0tY2xhc3MgUGF5cm9sbC0tPjxnIGNsYXNzPSJlbnRpdHkiIGRhdGEtZW50aXR5PSJQYXlyb2xsIiBkYXRhLXNvdXJjZS1saW5lPSIxMjAiIGRhdGEtdWlkPSJlbnQwMDE0IiBpZD0iZW50aXR5X1BheXJvbGwiPjxyZWN0IGZpbGw9IiNGMUYxRjEiIGhlaWdodD0iMTMwLjg5MDYiIHJ4PSIyLjUiIHJ5PSIyLjUiIHN0eWxlPSJzdHJva2U6IzE4MTgxODtzdHJva2Utd2lkdGg6MC41OyIgd2lkdGg9IjE2NiIgeD0iMjA4IiB5PSIxMjU0LjUiLz48dGV4dCBmaWxsPSIjMDAwMDAwIiBmb250LWZhbWlseT0ic2Fucy1zZXJpZiIgZm9udC1zaXplPSIxNCIgbGVuZ3RoQWRqdXN0PSJzcGFjaW5nIiB0ZXh0TGVuZ3RoPSI0OSIgeD0iMjY2LjUiIHk9IjEyNzIuNzM0NCI+UGF5cm9sbDwvdGV4dD48bGluZSBzdHlsZT0ic3Ryb2tlOiMxODE4MTg7c3Ryb2tlLXdpZHRoOjAuNTsiIHgxPSIyMDkiIHgyPSIzNzMiIHkxPSIxMjc5LjQ4NDQiIHkyPSIxMjc5LjQ4NDQiLz48ZWxsaXBzZSBjeD0iMjE5IiBjeT0iMTI5Mi40NzY2IiBmaWxsPSIjMDAwMDAwIiByeD0iMyIgcnk9IjMiIHN0eWxlPSJzdHJva2U6IzAwMDAwMDtzdHJva2Utd2lkdGg6MTsiLz48dGV4dCBmaWxsPSIjMDAwMDAwIiBmb250LWZhbWlseT0ic2Fucy1zZXJpZiIgZm9udC1zaXplPSIxNCIgbGVuZ3RoQWRqdXN0PSJzcGFjaW5nIiB0ZXh0TGVuZ3RoPSI5MSIgeD0iMjI4IiB5PSIxMjk2LjcxODgiPmlkIDogSU5UICYjMTcxO1BLJiMxODc7PC90ZXh0PjxsaW5lIHN0eWxlPSJzdHJva2U6IzE4MTgxODtzdHJva2Utd2lkdGg6MTsiIHgxPSIyMDkiIHgyPSIzNzMiIHkxPSIxMzAyLjQ2ODgiIHkyPSIxMzAyLjQ2ODgiLz48dGV4dCBmaWxsPSIjMDAwMDAwIiBmb250LWZhbWlseT0ic2Fucy1zZXJpZiIgZm9udC1zaXplPSIxNCIgbGVuZ3RoQWRqdXN0PSJzcGFjaW5nIiB0ZXh0TGVuZ3RoPSIxNTQiIHg9IjIxNCIgeT0iMTMxOS43MDMxIj5lbXBsb3llZV9pZCA6IElOVCAmIzE3MTtGSyYjMTg3OzwvdGV4dD48dGV4dCBmaWxsPSIjMDAwMDAwIiBmb250LWZhbWlseT0ic2Fucy1zZXJpZiIgZm9udC1zaXplPSIxNCIgbGVuZ3RoQWRqdXN0PSJzcGFjaW5nIiB0ZXh0TGVuZ3RoPSIxNDAiIHg9IjIxNCIgeT0iMTMzNC42ODc1Ij55ZWFyX21vbnRoIDogVkFSQ0hBUjwvdGV4dD48dGV4dCBmaWxsPSIjMDAwMDAwIiBmb250LWZhbWlseT0ic2Fucy1zZXJpZiIgZm9udC1zaXplPSIxNCIgbGVuZ3RoQWRqdXN0PSJzcGFjaW5nIiB0ZXh0TGVuZ3RoPSIxNTQiIHg9IjIxNCIgeT0iMTM0OS42NzE5Ij5zYWxhcnlfdG90YWwgOiBERUNJTUFMPC90ZXh0Pjx0ZXh0IGZpbGw9IiMwMDAwMDAiIGZvbnQtZmFtaWx5PSJzYW5zLXNlcmlmIiBmb250LXNpemU9IjE0IiBsZW5ndGhBZGp1c3Q9InNwYWNpbmciIHRleHRMZW5ndGg9IjEwNSIgeD0iMjE0IiB5PSIxMzY0LjY1NjMiPmJvbnVzIDogREVDSU1BTDwvdGV4dD48dGV4dCBmaWxsPSIjMDAwMDAwIiBmb250LWZhbWlseT0ic2Fucy1zZXJpZiIgZm9udC1zaXplPSIxNCIgbGVuZ3RoQWRqdXN0PSJzcGFjaW5nIiB0ZXh0TGVuZ3RoPSIxNDAiIHg9IjIxNCIgeT0iMTM3OS42NDA2Ij5kZWR1Y3Rpb25zIDogREVDSU1BTDwvdGV4dD48L2c+PCEtLWNsYXNzIExlYXZlcy0tPjxnIGNsYXNzPSJlbnRpdHkiIGRhdGEtZW50aXR5PSJMZWF2ZXMiIGRhdGEtc291cmNlLWxpbmU9IjEzMCIgZGF0YS11aWQ9ImVudDAwMTUiIGlkPSJlbnRpdHlfTGVhdmVzIj48cmVjdCBmaWxsPSIjRjFGMUYxIiBoZWlnaHQ9IjE0NS44NzUiIHJ4PSIyLjUiIHJ5PSIyLjUiIHN0eWxlPSJzdHJva2U6IzE4MTgxODtzdHJva2Utd2lkdGg6MC41OyIgd2lkdGg9IjE2NiIgeD0iNDA5IiB5PSIxMjQ3Ii8+PHRleHQgZmlsbD0iIzAwMDAwMCIgZm9udC1mYW1pbHk9InNhbnMtc2VyaWYiIGZvbnQtc2l6ZT0iMTQiIGxlbmd0aEFkanVzdD0ic3BhY2luZyIgdGV4dExlbmd0aD0iNDIiIHg9IjQ3MSIgeT0iMTI2NS4yMzQ0Ij5MZWF2ZXM8L3RleHQ+PGxpbmUgc3R5bGU9InN0cm9rZTojMTgxODE4O3N0cm9rZS13aWR0aDowLjU7IiB4MT0iNDEwIiB4Mj0iNTc0IiB5MT0iMTI3MS45ODQ0IiB5Mj0iMTI3MS45ODQ0Ii8+PGVsbGlwc2UgY3g9IjQyMCIgY3k9IjEyODQuOTc2NiIgZmlsbD0iIzAwMDAwMCIgcng9IjMiIHJ5PSIzIiBzdHlsZT0ic3Ryb2tlOiMwMDAwMDA7c3Ryb2tlLXdpZHRoOjE7Ii8+PHRleHQgZmlsbD0iIzAwMDAwMCIgZm9udC1mYW1pbHk9InNhbnMtc2VyaWYiIGZvbnQtc2l6ZT0iMTQiIGxlbmd0aEFkanVzdD0ic3BhY2luZyIgdGV4dExlbmd0aD0iOTEiIHg9IjQyOSIgeT0iMTI4OS4yMTg4Ij5pZCA6IElOVCAmIzE3MTtQSyYjMTg3OzwvdGV4dD48bGluZSBzdHlsZT0ic3Ryb2tlOiMxODE4MTg7c3Ryb2tlLXdpZHRoOjE7IiB4MT0iNDEwIiB4Mj0iNTc0IiB5MT0iMTI5NC45Njg4IiB5Mj0iMTI5NC45Njg4Ii8+PHRleHQgZmlsbD0iIzAwMDAwMCIgZm9udC1mYW1pbHk9InNhbnMtc2VyaWYiIGZvbnQtc2l6ZT0iMTQiIGxlbmd0aEFkanVzdD0ic3BhY2luZyIgdGV4dExlbmd0aD0iMTU0IiB4PSI0MTUiIHk9IjEzMTIuMjAzMSI+ZW1wbG95ZWVfaWQgOiBJTlQgJiMxNzE7RksmIzE4Nzs8L3RleHQ+PHRleHQgZmlsbD0iIzAwMDAwMCIgZm9udC1mYW1pbHk9InNhbnMtc2VyaWYiIGZvbnQtc2l6ZT0iMTQiIGxlbmd0aEFkanVzdD0ic3BhY2luZyIgdGV4dExlbmd0aD0iOTgiIHg9IjQxNSIgeT0iMTMyNy4xODc1Ij50eXBlIDogVkFSQ0hBUjwvdGV4dD48dGV4dCBmaWxsPSIjMDAwMDAwIiBmb250LWZhbWlseT0ic2Fucy1zZXJpZiIgZm9udC1zaXplPSIxNCIgbGVuZ3RoQWRqdXN0PSJzcGFjaW5nIiB0ZXh0TGVuZ3RoPSIxMTIiIHg9IjQxNSIgeT0iMTM0Mi4xNzE5Ij5mcm9tX2RhdGUgOiBEQVRFPC90ZXh0Pjx0ZXh0IGZpbGw9IiMwMDAwMDAiIGZvbnQtZmFtaWx5PSJzYW5zLXNlcmlmIiBmb250LXNpemU9IjE0IiBsZW5ndGhBZGp1c3Q9InNwYWNpbmciIHRleHRMZW5ndGg9Ijk4IiB4PSI0MTUiIHk9IjEzNTcuMTU2MyI+dG9fZGF0ZSA6IERBVEU8L3RleHQ+PHRleHQgZmlsbD0iIzAwMDAwMCIgZm9udC1mYW1pbHk9InNhbnMtc2VyaWYiIGZvbnQtc2l6ZT0iMTQiIGxlbmd0aEFkanVzdD0ic3BhY2luZyIgdGV4dExlbmd0aD0iOTEiIHg9IjQxNSIgeT0iMTM3Mi4xNDA2Ij5yZWFzb24gOiBURVhUPC90ZXh0Pjx0ZXh0IGZpbGw9IiMwMDAwMDAiIGZvbnQtZmFtaWx5PSJzYW5zLXNlcmlmIiBmb250LXNpemU9IjE0IiBsZW5ndGhBZGp1c3Q9InNwYWNpbmciIHRleHRMZW5ndGg9IjE0MCIgeD0iNDE1IiB5PSIxMzg3LjEyNSI+c3RhdHVzIDogTGVhdmVTdGF0dXM8L3RleHQ+PC9nPjwhLS1jbGFzcyBUcmFpbmluZ3MtLT48ZyBjbGFzcz0iZW50aXR5IiBkYXRhLWVudGl0eT0iVHJhaW5pbmdzIiBkYXRhLXNvdXJjZS1saW5lPSIxNDEiIGRhdGEtdWlkPSJlbnQwMDE2IiBpZD0iZW50aXR5X1RyYWluaW5ncyI+PHJlY3QgZmlsbD0iI0YxRjFGMSIgaGVpZ2h0PSIxMDAuOTIxOSIgcng9IjIuNSIgcnk9IjIuNSIgc3R5bGU9InN0cm9rZTojMTgxODE4O3N0cm9rZS13aWR0aDowLjU7IiB3aWR0aD0iMTUyIiB4PSIxMTEwIiB5PSI5NTguNSIvPjx0ZXh0IGZpbGw9IiMwMDAwMDAiIGZvbnQtZmFtaWx5PSJzYW5zLXNlcmlmIiBmb250LXNpemU9IjE0IiBsZW5ndGhBZGp1c3Q9InNwYWNpbmciIHRleHRMZW5ndGg9IjYzIiB4PSIxMTU0LjUiIHk9Ijk3Ni43MzQ0Ij5UcmFpbmluZ3M8L3RleHQ+PGxpbmUgc3R5bGU9InN0cm9rZTojMTgxODE4O3N0cm9rZS13aWR0aDowLjU7IiB4MT0iMTExMSIgeDI9IjEyNjEiIHkxPSI5ODMuNDg0NCIgeTI9Ijk4My40ODQ0Ii8+PGVsbGlwc2UgY3g9IjExMjEiIGN5PSI5OTYuNDc2NiIgZmlsbD0iIzAwMDAwMCIgcng9IjMiIHJ5PSIzIiBzdHlsZT0ic3Ryb2tlOiMwMDAwMDA7c3Ryb2tlLXdpZHRoOjE7Ii8+PHRleHQgZmlsbD0iIzAwMDAwMCIgZm9udC1mYW1pbHk9InNhbnMtc2VyaWYiIGZvbnQtc2l6ZT0iMTQiIGxlbmd0aEFkanVzdD0ic3BhY2luZyIgdGV4dExlbmd0aD0iOTEiIHg9IjExMzAiIHk9IjEwMDAuNzE4OCI+aWQgOiBJTlQgJiMxNzE7UEsmIzE4Nzs8L3RleHQ+PGxpbmUgc3R5bGU9InN0cm9rZTojMTgxODE4O3N0cm9rZS13aWR0aDoxOyIgeDE9IjExMTEiIHgyPSIxMjYxIiB5MT0iMTAwNi40Njg4IiB5Mj0iMTAwNi40Njg4Ii8+PHRleHQgZmlsbD0iIzAwMDAwMCIgZm9udC1mYW1pbHk9InNhbnMtc2VyaWYiIGZvbnQtc2l6ZT0iMTQiIGxlbmd0aEFkanVzdD0ic3BhY2luZyIgdGV4dExlbmd0aD0iMTA1IiB4PSIxMTE2IiB5PSIxMDIzLjcwMzEiPnRpdGxlIDogVkFSQ0hBUjwvdGV4dD48dGV4dCBmaWxsPSIjMDAwMDAwIiBmb250LWZhbWlseT0ic2Fucy1zZXJpZiIgZm9udC1zaXplPSIxNCIgbGVuZ3RoQWRqdXN0PSJzcGFjaW5nIiB0ZXh0TGVuZ3RoPSIxMjYiIHg9IjExMTYiIHk9IjEwMzguNjg3NSI+ZGVzY3JpcHRpb24gOiBURVhUPC90ZXh0Pjx0ZXh0IGZpbGw9IiMwMDAwMDAiIGZvbnQtZmFtaWx5PSJzYW5zLXNlcmlmIiBmb250LXNpemU9IjE0IiBsZW5ndGhBZGp1c3Q9InNwYWNpbmciIHRleHRMZW5ndGg9IjE0MCIgeD0iMTExNiIgeT0iMTA1My42NzE5Ij5kYXRlX3JhbmdlIDogVkFSQ0hBUjwvdGV4dD48L2c+PCEtLWNsYXNzIEVtcGxveWVlX1RyYWluaW5ncy0tPjxnIGNsYXNzPSJlbnRpdHkiIGRhdGEtZW50aXR5PSJFbXBsb3llZV9UcmFpbmluZ3MiIGRhdGEtc291cmNlLWxpbmU9IjE0OSIgZGF0YS11aWQ9ImVudDAwMTciIGlkPSJlbnRpdHlfRW1wbG95ZWVfVHJhaW5pbmdzIj48cmVjdCBmaWxsPSIjRjFGMUYxIiBoZWlnaHQ9Ijg1LjkzNzUiIHJ4PSIyLjUiIHJ5PSIyLjUiIHN0eWxlPSJzdHJva2U6IzE4MTgxODtzdHJva2Utd2lkdGg6MC41OyIgd2lkdGg9IjE4MCIgeD0iMTA5NiIgeT0iMTI3NyIvPjx0ZXh0IGZpbGw9IiMwMDAwMDAiIGZvbnQtZmFtaWx5PSJzYW5zLXNlcmlmIiBmb250LXNpemU9IjE0IiBsZW5ndGhBZGp1c3Q9InNwYWNpbmciIHRleHRMZW5ndGg9IjEyNiIgeD0iMTEyMyIgeT0iMTI5NS4yMzQ0Ij5FbXBsb3llZV9UcmFpbmluZ3M8L3RleHQ+PGxpbmUgc3R5bGU9InN0cm9rZTojMTgxODE4O3N0cm9rZS13aWR0aDowLjU7IiB4MT0iMTA5NyIgeDI9IjEyNzUiIHkxPSIxMzAxLjk4NDQiIHkyPSIxMzAxLjk4NDQiLz48ZWxsaXBzZSBjeD0iMTEwNyIgY3k9IjEzMTQuOTc2NiIgZmlsbD0iIzAwMDAwMCIgcng9IjMiIHJ5PSIzIiBzdHlsZT0ic3Ryb2tlOiMwMDAwMDA7c3Ryb2tlLXdpZHRoOjE7Ii8+PHRleHQgZmlsbD0iIzAwMDAwMCIgZm9udC1mYW1pbHk9InNhbnMtc2VyaWYiIGZvbnQtc2l6ZT0iMTQiIGxlbmd0aEFkanVzdD0ic3BhY2luZyIgdGV4dExlbmd0aD0iMTU0IiB4PSIxMTE2IiB5PSIxMzE5LjIxODgiPmVtcGxveWVlX2lkIDogSU5UICYjMTcxO0ZLJiMxODc7PC90ZXh0PjxlbGxpcHNlIGN4PSIxMTA3IiBjeT0iMTMyOS45NjA5IiBmaWxsPSIjMDAwMDAwIiByeD0iMyIgcnk9IjMiIHN0eWxlPSJzdHJva2U6IzAwMDAwMDtzdHJva2Utd2lkdGg6MTsiLz48dGV4dCBmaWxsPSIjMDAwMDAwIiBmb250LWZhbWlseT0ic2Fucy1zZXJpZiIgZm9udC1zaXplPSIxNCIgbGVuZ3RoQWRqdXN0PSJzcGFjaW5nIiB0ZXh0TGVuZ3RoPSIxNTQiIHg9IjExMTYiIHk9IjEzMzQuMjAzMSI+dHJhaW5pbmdfaWQgOiBJTlQgJiMxNzE7RksmIzE4Nzs8L3RleHQ+PGxpbmUgc3R5bGU9InN0cm9rZTojMTgxODE4O3N0cm9rZS13aWR0aDoxOyIgeDE9IjEwOTciIHgyPSIxMjc1IiB5MT0iMTMzOS45NTMxIiB5Mj0iMTMzOS45NTMxIi8+PHRleHQgZmlsbD0iIzAwMDAwMCIgZm9udC1mYW1pbHk9InNhbnMtc2VyaWYiIGZvbnQtc2l6ZT0iMTQiIGxlbmd0aEFkanVzdD0ic3BhY2luZyIgdGV4dExlbmd0aD0iMTEyIiB4PSIxMTAyIiB5PSIxMzU3LjE4NzUiPnJlc3VsdCA6IFZBUkNIQVI8L3RleHQ+PC9nPjwhLS1jbGFzcyBFdmFsdWF0aW9ucy0tPjxnIGNsYXNzPSJlbnRpdHkiIGRhdGEtZW50aXR5PSJFdmFsdWF0aW9ucyIgZGF0YS1zb3VyY2UtbGluZT0iMTU2IiBkYXRhLXVpZD0iZW50MDAxOCIgaWQ9ImVudGl0eV9FdmFsdWF0aW9ucyI+PHJlY3QgZmlsbD0iI0YxRjFGMSIgaGVpZ2h0PSIyMzUuNzgxMyIgcng9IjIuNSIgcnk9IjIuNSIgc3R5bGU9InN0cm9rZTojMTgxODE4O3N0cm9rZS13aWR0aDowLjU7IiB3aWR0aD0iMjA4IiB4PSI2MTAiIHk9IjEyMDIiLz48dGV4dCBmaWxsPSIjMDAwMDAwIiBmb250LWZhbWlseT0ic2Fucy1zZXJpZiIgZm9udC1zaXplPSIxNCIgbGVuZ3RoQWRqdXN0PSJzcGFjaW5nIiB0ZXh0TGVuZ3RoPSI3NyIgeD0iNjc1LjUiIHk9IjEyMjAuMjM0NCI+RXZhbHVhdGlvbnM8L3RleHQ+PGxpbmUgc3R5bGU9InN0cm9rZTojMTgxODE4O3N0cm9rZS13aWR0aDowLjU7IiB4MT0iNjExIiB4Mj0iODE3IiB5MT0iMTIyNi45ODQ0IiB5Mj0iMTIyNi45ODQ0Ii8+PGVsbGlwc2UgY3g9IjYyMSIgY3k9IjEyMzkuOTc2NiIgZmlsbD0iIzAwMDAwMCIgcng9IjMiIHJ5PSIzIiBzdHlsZT0ic3Ryb2tlOiMwMDAwMDA7c3Ryb2tlLXdpZHRoOjE7Ii8+PHRleHQgZmlsbD0iIzAwMDAwMCIgZm9udC1mYW1pbHk9InNhbnMtc2VyaWYiIGZvbnQtc2l6ZT0iMTQiIGxlbmd0aEFkanVzdD0ic3BhY2luZyIgdGV4dExlbmd0aD0iOTEiIHg9IjYzMCIgeT0iMTI0NC4yMTg4Ij5pZCA6IElOVCAmIzE3MTtQSyYjMTg3OzwvdGV4dD48bGluZSBzdHlsZT0ic3Ryb2tlOiMxODE4MTg7c3Ryb2tlLXdpZHRoOjE7IiB4MT0iNjExIiB4Mj0iODE3IiB5MT0iMTI0OS45Njg4IiB5Mj0iMTI0OS45Njg4Ii8+PHRleHQgZmlsbD0iIzAwMDAwMCIgZm9udC1mYW1pbHk9InNhbnMtc2VyaWYiIGZvbnQtc2l6ZT0iMTQiIGxlbmd0aEFkanVzdD0ic3BhY2luZyIgdGV4dExlbmd0aD0iMTU0IiB4PSI2MTYiIHk9IjEyNjcuMjAzMSI+ZW1wbG95ZWVfaWQgOiBJTlQgJiMxNzE7RksmIzE4Nzs8L3RleHQ+PHRleHQgZmlsbD0iIzAwMDAwMCIgZm9udC1mYW1pbHk9InNhbnMtc2VyaWYiIGZvbnQtc2l6ZT0iMTQiIGxlbmd0aEFkanVzdD0ic3BhY2luZyIgdGV4dExlbmd0aD0iMTg5IiB4PSI2MTYiIHk9IjEyODIuMTg3NSI+ZXZhbHVhdGlvbl9wZXJpb2QgOiBWQVJDSEFSPC90ZXh0Pjx0ZXh0IGZpbGw9IiMwMDAwMDAiIGZvbnQtZmFtaWx5PSJzYW5zLXNlcmlmIiBmb250LXNpemU9IjE0IiBsZW5ndGhBZGp1c3Q9InNwYWNpbmciIHRleHRMZW5ndGg9IjE4MiIgeD0iNjE2IiB5PSIxMjk3LjE3MTkiPmF0dGVuZGFuY2Vfc2NvcmUgOiBERUNJTUFMPC90ZXh0Pjx0ZXh0IGZpbGw9IiMwMDAwMDAiIGZvbnQtZmFtaWx5PSJzYW5zLXNlcmlmIiBmb250LXNpemU9IjE0IiBsZW5ndGhBZGp1c3Q9InNwYWNpbmciIHRleHRMZW5ndGg9IjE1NCIgeD0iNjE2IiB5PSIxMzEyLjE1NjMiPnJld2FyZF9zY29yZSA6IERFQ0lNQUw8L3RleHQ+PHRleHQgZmlsbD0iIzAwMDAwMCIgZm9udC1mYW1pbHk9InNhbnMtc2VyaWYiIGZvbnQtc2l6ZT0iMTQiIGxlbmd0aEFkanVzdD0ic3BhY2luZyIgdGV4dExlbmd0aD0iMTgyIiB4PSI2MTYiIHk9IjEzMjcuMTQwNiI+ZGlzY2lwbGluZV9zY29yZSA6IERFQ0lNQUw8L3RleHQ+PHRleHQgZmlsbD0iIzAwMDAwMCIgZm9udC1mYW1pbHk9InNhbnMtc2VyaWYiIGZvbnQtc2l6ZT0iMTQiIGxlbmd0aEFkanVzdD0ic3BhY2luZyIgdGV4dExlbmd0aD0iMTY4IiB4PSI2MTYiIHk9IjEzNDIuMTI1Ij50cmFpbmluZ19zY29yZSA6IERFQ0lNQUw8L3RleHQ+PHRleHQgZmlsbD0iIzAwMDAwMCIgZm9udC1mYW1pbHk9InNhbnMtc2VyaWYiIGZvbnQtc2l6ZT0iMTQiIGxlbmd0aEFkanVzdD0ic3BhY2luZyIgdGV4dExlbmd0aD0iMTg5IiB4PSI2MTYiIHk9IjEzNTcuMTA5NCI+cGVyZm9ybWFuY2Vfc2NvcmUgOiBERUNJTUFMPC90ZXh0Pjx0ZXh0IGZpbGw9IiMwMDAwMDAiIGZvbnQtZmFtaWx5PSJzYW5zLXNlcmlmIiBmb250LXNpemU9IjE0IiBsZW5ndGhBZGp1c3Q9InNwYWNpbmciIHRleHRMZW5ndGg9IjE0NyIgeD0iNjE2IiB5PSIxMzcyLjA5MzgiPnRvdGFsX3Njb3JlIDogREVDSU1BTDwvdGV4dD48dGV4dCBmaWxsPSIjMDAwMDAwIiBmb250LWZhbWlseT0ic2Fucy1zZXJpZiIgZm9udC1zaXplPSIxNCIgbGVuZ3RoQWRqdXN0PSJzcGFjaW5nIiB0ZXh0TGVuZ3RoPSIxNjgiIHg9IjYxNiIgeT0iMTM4Ny4wNzgxIj5yYW5rX2luX2RlcGFydG1lbnQgOiBJTlQ8L3RleHQ+PHRleHQgZmlsbD0iIzAwMDAwMCIgZm9udC1mYW1pbHk9InNhbnMtc2VyaWYiIGZvbnQtc2l6ZT0iMTQiIGxlbmd0aEFkanVzdD0ic3BhY2luZyIgdGV4dExlbmd0aD0iMTQ3IiB4PSI2MTYiIHk9IjE0MDIuMDYyNSI+cmFua19pbl9jb21wYW55IDogSU5UPC90ZXh0Pjx0ZXh0IGZpbGw9IiMwMDAwMDAiIGZvbnQtZmFtaWx5PSJzYW5zLXNlcmlmIiBmb250LXNpemU9IjE0IiBsZW5ndGhBZGp1c3Q9InNwYWNpbmciIHRleHRMZW5ndGg9IjE5NiIgeD0iNjE2IiB5PSIxNDE3LjA0NjkiPnZlY3Rvcl9zdW1tYXJ5IDogVkVDVE9SKDM1OCk8L3RleHQ+PHRleHQgZmlsbD0iIzAwMDAwMCIgZm9udC1mYW1pbHk9InNhbnMtc2VyaWYiIGZvbnQtc2l6ZT0iMTQiIGxlbmd0aEFkanVzdD0ic3BhY2luZyIgdGV4dExlbmd0aD0iMTY4IiB4PSI2MTYiIHk9IjE0MzIuMDMxMyI+bGFzdF91cGRhdGVkIDogVElNRVNUQU1QPC90ZXh0PjwvZz48IS0tY2xhc3MgRXZlbnRzLS0+PGcgY2xhc3M9ImVudGl0eSIgZGF0YS1lbnRpdHk9IkV2ZW50cyIgZGF0YS1zb3VyY2UtbGluZT0iMTczIiBkYXRhLXVpZD0iZW50MDAxOSIgaWQ9ImVudGl0eV9FdmVudHMiPjxyZWN0IGZpbGw9IiNGMUYxRjEiIGhlaWdodD0iMTQ1Ljg3NSIgcng9IjIuNSIgcnk9IjIuNSIgc3R5bGU9InN0cm9rZTojMTgxODE4O3N0cm9rZS13aWR0aDowLjU7IiB3aWR0aD0iMjA4IiB4PSI4NTMiIHk9IjEyNDciLz48dGV4dCBmaWxsPSIjMDAwMDAwIiBmb250LWZhbWlseT0ic2Fucy1zZXJpZiIgZm9udC1zaXplPSIxNCIgbGVuZ3RoQWRqdXN0PSJzcGFjaW5nIiB0ZXh0TGVuZ3RoPSI0MiIgeD0iOTM2IiB5PSIxMjY1LjIzNDQiPkV2ZW50czwvdGV4dD48bGluZSBzdHlsZT0ic3Ryb2tlOiMxODE4MTg7c3Ryb2tlLXdpZHRoOjAuNTsiIHgxPSI4NTQiIHgyPSIxMDYwIiB5MT0iMTI3MS45ODQ0IiB5Mj0iMTI3MS45ODQ0Ii8+PGVsbGlwc2UgY3g9Ijg2NCIgY3k9IjEyODQuOTc2NiIgZmlsbD0iIzAwMDAwMCIgcng9IjMiIHJ5PSIzIiBzdHlsZT0ic3Ryb2tlOiMwMDAwMDA7c3Ryb2tlLXdpZHRoOjE7Ii8+PHRleHQgZmlsbD0iIzAwMDAwMCIgZm9udC1mYW1pbHk9InNhbnMtc2VyaWYiIGZvbnQtc2l6ZT0iMTQiIGxlbmd0aEFkanVzdD0ic3BhY2luZyIgdGV4dExlbmd0aD0iOTEiIHg9Ijg3MyIgeT0iMTI4OS4yMTg4Ij5pZCA6IElOVCAmIzE3MTtQSyYjMTg3OzwvdGV4dD48bGluZSBzdHlsZT0ic3Ryb2tlOiMxODE4MTg7c3Ryb2tlLXdpZHRoOjE7IiB4MT0iODU0IiB4Mj0iMTA2MCIgeTE9IjEyOTQuOTY4OCIgeTI9IjEyOTQuOTY4OCIvPjx0ZXh0IGZpbGw9IiMwMDAwMDAiIGZvbnQtZmFtaWx5PSJzYW5zLXNlcmlmIiBmb250LXNpemU9IjE0IiBsZW5ndGhBZGp1c3Q9InNwYWNpbmciIHRleHRMZW5ndGg9IjE1NCIgeD0iODU5IiB5PSIxMzEyLjIwMzEiPmVtcGxveWVlX2lkIDogSU5UICYjMTcxO0ZLJiMxODc7PC90ZXh0Pjx0ZXh0IGZpbGw9IiMwMDAwMDAiIGZvbnQtZmFtaWx5PSJzYW5zLXNlcmlmIiBmb250LXNpemU9IjE0IiBsZW5ndGhBZGp1c3Q9InNwYWNpbmciIHRleHRMZW5ndGg9IjExMiIgeD0iODU5IiB5PSIxMzI3LjE4NzUiPnR5cGUgOiBFdmVudFR5cGU8L3RleHQ+PHRleHQgZmlsbD0iIzAwMDAwMCIgZm9udC1mYW1pbHk9InNhbnMtc2VyaWYiIGZvbnQtc2l6ZT0iMTQiIGxlbmd0aEFkanVzdD0ic3BhY2luZyIgdGV4dExlbmd0aD0iMTA1IiB4PSI4NTkiIHk9IjEzNDIuMTcxOSI+dGl0bGUgOiBWQVJDSEFSPC90ZXh0Pjx0ZXh0IGZpbGw9IiMwMDAwMDAiIGZvbnQtZmFtaWx5PSJzYW5zLXNlcmlmIiBmb250LXNpemU9IjE0IiBsZW5ndGhBZGp1c3Q9InNwYWNpbmciIHRleHRMZW5ndGg9Ijk4IiB4PSI4NTkiIHk9IjEzNTcuMTU2MyI+Y29udGVudCA6IFRFWFQ8L3RleHQ+PHRleHQgZmlsbD0iIzAwMDAwMCIgZm9udC1mYW1pbHk9InNhbnMtc2VyaWYiIGZvbnQtc2l6ZT0iMTQiIGxlbmd0aEFkanVzdD0ic3BhY2luZyIgdGV4dExlbmd0aD0iMTE5IiB4PSI4NTkiIHk9IjEzNzIuMTQwNiI+ZXZlbnRfZGF0ZSA6IERBVEU8L3RleHQ+PHRleHQgZmlsbD0iIzAwMDAwMCIgZm9udC1mYW1pbHk9InNhbnMtc2VyaWYiIGZvbnQtc2l6ZT0iMTQiIGxlbmd0aEFkanVzdD0ic3BhY2luZyIgdGV4dExlbmd0aD0iMTk2IiB4PSI4NTkiIHk9IjEzODcuMTI1Ij5zdW1tYXJ5X3ZlY3RvciA6IFZFQ1RPUigzNTgpPC90ZXh0PjwvZz48IS0tbGluayBCcmFuY2hlcyB0byBCdWlsZGluZ3MtLT48ZyBjbGFzcz0ibGluayIgZGF0YS1lbnRpdHktMT0iQnJhbmNoZXMiIGRhdGEtZW50aXR5LTI9IkJ1aWxkaW5ncyIgZGF0YS1zb3VyY2UtbGluZT0iMTg2IiBkYXRhLXVpZD0ibG5rMjAiIGlkPSJsaW5rX0JyYW5jaGVzX0J1aWxkaW5ncyI+PHBhdGggY29kZUxpbmU9IjE4NiIgZD0iTTU0MiwxMTYuMjkgQzU0MiwxMzMuOTEgNTQyLDEyOC42MiA1NDIsMTQ5LjkyIiBmaWxsPSJub25lIiBpZD0iQnJhbmNoZXMtQnVpbGRpbmdzIiBzdHlsZT0ic3Ryb2tlOiMxODE4MTg7c3Ryb2tlLXdpZHRoOjE7Ii8+PGxpbmUgc3R5bGU9InN0cm9rZTojMTgxODE4O3N0cm9rZS13aWR0aDoxOyIgeDE9IjUzOCIgeDI9IjU0NiIgeTE9IjExMi4yOSIgeTI9IjExMi4yOSIvPjxsaW5lIHN0eWxlPSJzdHJva2U6IzE4MTgxODtzdHJva2Utd2lkdGg6MTsiIHgxPSI1MzgiIHgyPSI1NDYiIHkxPSIxMTUuMjkiIHkyPSIxMTUuMjkiLz48bGluZSBzdHlsZT0ic3Ryb2tlOiMxODE4MTg7c3Ryb2tlLXdpZHRoOjE7IiB4MT0iNTQyIiB4Mj0iNTQyIiB5MT0iMTE2LjI5IiB5Mj0iMTA4LjI5Ii8+PGxpbmUgc3R5bGU9InN0cm9rZTojMTgxODE4O3N0cm9rZS13aWR0aDoxOyIgeDE9IjU0MiIgeDI9IjU0OCIgeTE9IjE1OS45MiIgeTI9IjE2Ny45MiIvPjxsaW5lIHN0eWxlPSJzdHJva2U6IzE4MTgxODtzdHJva2Utd2lkdGg6MTsiIHgxPSI1NDIiIHgyPSI1MzYiIHkxPSIxNTkuOTIiIHkyPSIxNjcuOTIiLz48bGluZSBzdHlsZT0ic3Ryb2tlOiMxODE4MTg7c3Ryb2tlLXdpZHRoOjE7IiB4MT0iNTQyIiB4Mj0iNTQyIiB5MT0iMTU5LjkyIiB5Mj0iMTY3LjkyIi8+PGVsbGlwc2UgY3g9IjU0MiIgY3k9IjE1My45MiIgZmlsbD0ibm9uZSIgcng9IjQiIHJ5PSI0IiBzdHlsZT0ic3Ryb2tlOiMxODE4MTg7c3Ryb2tlLXdpZHRoOjE7Ii8+PC9nPjwhLS1saW5rIEJ1aWxkaW5ncyB0byBSb29tcy0tPjxnIGNsYXNzPSJsaW5rIiBkYXRhLWVudGl0eS0xPSJCdWlsZGluZ3MiIGRhdGEtZW50aXR5LTI9IlJvb21zIiBkYXRhLXNvdXJjZS1saW5lPSIxODciIGRhdGEtdWlkPSJsbmsyMSIgaWQ9ImxpbmtfQnVpbGRpbmdzX1Jvb21zIj48cGF0aCBjb2RlTGluZT0iMTg3IiBkPSJNNTQyLDQ1Ny4yNiBDNTQyLDQ3Ny44MSA1NDIsNDcyLjIzIDU0Miw0OTAuNjgiIGZpbGw9Im5vbmUiIGlkPSJCdWlsZGluZ3MtUm9vbXMiIHN0eWxlPSJzdHJva2U6IzE4MTgxODtzdHJva2Utd2lkdGg6MTsiLz48bGluZSBzdHlsZT0ic3Ryb2tlOiMxODE4MTg7c3Ryb2tlLXdpZHRoOjE7IiB4MT0iNTM4IiB4Mj0iNTQ2IiB5MT0iNDUzLjI2IiB5Mj0iNDUzLjI2Ii8+PGxpbmUgc3R5bGU9InN0cm9rZTojMTgxODE4O3N0cm9rZS13aWR0aDoxOyIgeDE9IjUzOCIgeDI9IjU0NiIgeTE9IjQ1Ni4yNiIgeTI9IjQ1Ni4yNiIvPjxsaW5lIHN0eWxlPSJzdHJva2U6IzE4MTgxODtzdHJva2Utd2lkdGg6MTsiIHgxPSI1NDIiIHgyPSI1NDIiIHkxPSI0NTcuMjYiIHkyPSI0NDkuMjYiLz48bGluZSBzdHlsZT0ic3Ryb2tlOiMxODE4MTg7c3Ryb2tlLXdpZHRoOjE7IiB4MT0iNTQyIiB4Mj0iNTQ4IiB5MT0iNTAwLjY4IiB5Mj0iNTA4LjY4Ii8+PGxpbmUgc3R5bGU9InN0cm9rZTojMTgxODE4O3N0cm9rZS13aWR0aDoxOyIgeDE9IjU0MiIgeDI9IjUzNiIgeTE9IjUwMC42OCIgeTI9IjUwOC42OCIvPjxsaW5lIHN0eWxlPSJzdHJva2U6IzE4MTgxODtzdHJva2Utd2lkdGg6MTsiIHgxPSI1NDIiIHgyPSI1NDIiIHkxPSI1MDAuNjgiIHkyPSI1MDguNjgiLz48ZWxsaXBzZSBjeD0iNTQyIiBjeT0iNDk0LjY4IiBmaWxsPSJub25lIiByeD0iNCIgcnk9IjQiIHN0eWxlPSJzdHJva2U6IzE4MTgxODtzdHJva2Utd2lkdGg6MTsiLz48L2c+PCEtLWxpbmsgUm9vbXMgdG8gRW1wbG95ZWVzLS0+PGcgY2xhc3M9ImxpbmsiIGRhdGEtZW50aXR5LTE9IlJvb21zIiBkYXRhLWVudGl0eS0yPSJFbXBsb3llZXMiIGRhdGEtc291cmNlLWxpbmU9IjE4OCIgZGF0YS11aWQ9ImxuazIyIiBpZD0ibGlua19Sb29tc19FbXBsb3llZXMiPjxwYXRoIGNvZGVMaW5lPSIxODgiIGQ9Ik01OTEsNjYzLjQgQzU5MSw3MjMuODUgNTkxLDc4NS4xMiA1OTEsODU3Ljg0IiBmaWxsPSJub25lIiBpZD0iUm9vbXMtRW1wbG95ZWVzIiBzdHlsZT0ic3Ryb2tlOiMxODE4MTg7c3Ryb2tlLXdpZHRoOjE7Ii8+PGxpbmUgc3R5bGU9InN0cm9rZTojMTgxODE4O3N0cm9rZS13aWR0aDoxOyIgeDE9IjU4NyIgeDI9IjU5NSIgeTE9IjY1OS40IiB5Mj0iNjU5LjQiLz48bGluZSBzdHlsZT0ic3Ryb2tlOiMxODE4MTg7c3Ryb2tlLXdpZHRoOjE7IiB4MT0iNTg3IiB4Mj0iNTk1IiB5MT0iNjYyLjQiIHkyPSI2NjIuNCIvPjxsaW5lIHN0eWxlPSJzdHJva2U6IzE4MTgxODtzdHJva2Utd2lkdGg6MTsiIHgxPSI1OTEiIHgyPSI1OTEiIHkxPSI2NjMuNCIgeTI9IjY1NS40Ii8+PGxpbmUgc3R5bGU9InN0cm9rZTojMTgxODE4O3N0cm9rZS13aWR0aDoxOyIgeDE9IjU5MSIgeDI9IjU5NyIgeTE9Ijg2Ny44NCIgeTI9Ijg3NS44NCIvPjxsaW5lIHN0eWxlPSJzdHJva2U6IzE4MTgxODtzdHJva2Utd2lkdGg6MTsiIHgxPSI1OTEiIHgyPSI1ODUiIHkxPSI4NjcuODQiIHkyPSI4NzUuODQiLz48bGluZSBzdHlsZT0ic3Ryb2tlOiMxODE4MTg7c3Ryb2tlLXdpZHRoOjE7IiB4MT0iNTkxIiB4Mj0iNTkxIiB5MT0iODY3Ljg0IiB5Mj0iODc1Ljg0Ii8+PGVsbGlwc2UgY3g9IjU5MSIgY3k9Ijg2MS44NCIgZmlsbD0ibm9uZSIgcng9IjQiIHJ5PSI0IiBzdHlsZT0ic3Ryb2tlOiMxODE4MTg7c3Ryb2tlLXdpZHRoOjE7Ii8+PC9nPjwhLS1saW5rIFJvb21zIHRvIERlcGFydG1lbnRzLS0+PGcgY2xhc3M9ImxpbmsiIGRhdGEtZW50aXR5LTE9IlJvb21zIiBkYXRhLWVudGl0eS0yPSJEZXBhcnRtZW50cyIgZGF0YS1zb3VyY2UtbGluZT0iMTg5IiBkYXRhLXVpZD0ibG5rMjMiIGlkPSJsaW5rX1Jvb21zX0RlcGFydG1lbnRzIj48cGF0aCBjb2RlTGluZT0iMTg5IiBkPSJNNTAxLDY2My4wNSBDNTAxLDY4NS44NCA1MDEsNjg0LjIzIDUwMSw3MDQuMjkiIGZpbGw9Im5vbmUiIGlkPSJSb29tcy1EZXBhcnRtZW50cyIgc3R5bGU9InN0cm9rZTojMTgxODE4O3N0cm9rZS13aWR0aDoxOyIvPjxsaW5lIHN0eWxlPSJzdHJva2U6IzE4MTgxODtzdHJva2Utd2lkdGg6MTsiIHgxPSI0OTciIHgyPSI1MDUiIHkxPSI2NTkuMDUiIHkyPSI2NTkuMDUiLz48bGluZSBzdHlsZT0ic3Ryb2tlOiMxODE4MTg7c3Ryb2tlLXdpZHRoOjE7IiB4MT0iNDk3IiB4Mj0iNTA1IiB5MT0iNjYyLjA1IiB5Mj0iNjYyLjA1Ii8+PGxpbmUgc3R5bGU9InN0cm9rZTojMTgxODE4O3N0cm9rZS13aWR0aDoxOyIgeDE9IjUwMSIgeDI9IjUwMSIgeTE9IjY2My4wNSIgeTI9IjY1NS4wNSIvPjxsaW5lIHN0eWxlPSJzdHJva2U6IzE4MTgxODtzdHJva2Utd2lkdGg6MTsiIHgxPSI1MDEiIHgyPSI1MDciIHkxPSI3MTQuMjkiIHkyPSI3MjIuMjkiLz48bGluZSBzdHlsZT0ic3Ryb2tlOiMxODE4MTg7c3Ryb2tlLXdpZHRoOjE7IiB4MT0iNTAxIiB4Mj0iNDk1IiB5MT0iNzE0LjI5IiB5Mj0iNzIyLjI5Ii8+PGxpbmUgc3R5bGU9InN0cm9rZTojMTgxODE4O3N0cm9rZS13aWR0aDoxOyIgeDE9IjUwMSIgeDI9IjUwMSIgeTE9IjcxNC4yOSIgeTI9IjcyMi4yOSIvPjxlbGxpcHNlIGN4PSI1MDEiIGN5PSI3MDguMjkiIGZpbGw9Im5vbmUiIHJ4PSI0IiByeT0iNCIgc3R5bGU9InN0cm9rZTojMTgxODE4O3N0cm9rZS13aWR0aDoxOyIvPjwvZz48IS0tbGluayBEZXBhcnRtZW50cyB0byBFbXBsb3llZXMtLT48ZyBjbGFzcz0ibGluayIgZGF0YS1lbnRpdHktMT0iRGVwYXJ0bWVudHMiIGRhdGEtZW50aXR5LTI9IkVtcGxveWVlcyIgZGF0YS1zb3VyY2UtbGluZT0iMTkwIiBkYXRhLXVpZD0ibG5rMjQiIGlkPSJsaW5rX0RlcGFydG1lbnRzX0VtcGxveWVlcyI+PHBhdGggY29kZUxpbmU9IjE5MCIgZD0iTTUyMi43NSw4MTYuNzUgQzUyMi43NSw4MzUuODkgNTIyLjc1LDgzMy41MyA1MjIuNzUsODU3Ljc4IiBmaWxsPSJub25lIiBpZD0iRGVwYXJ0bWVudHMtRW1wbG95ZWVzIiBzdHlsZT0ic3Ryb2tlOiMxODE4MTg7c3Ryb2tlLXdpZHRoOjE7Ii8+PGxpbmUgc3R5bGU9InN0cm9rZTojMTgxODE4O3N0cm9rZS13aWR0aDoxOyIgeDE9IjUxOC43NSIgeDI9IjUyNi43NSIgeTE9IjgxMi43NSIgeTI9IjgxMi43NSIvPjxsaW5lIHN0eWxlPSJzdHJva2U6IzE4MTgxODtzdHJva2Utd2lkdGg6MTsiIHgxPSI1MTguNzUiIHgyPSI1MjYuNzUiIHkxPSI4MTUuNzUiIHkyPSI4MTUuNzUiLz48bGluZSBzdHlsZT0ic3Ryb2tlOiMxODE4MTg7c3Ryb2tlLXdpZHRoOjE7IiB4MT0iNTIyLjc1IiB4Mj0iNTIyLjc1IiB5MT0iODE2Ljc1IiB5Mj0iODA4Ljc1Ii8+PGxpbmUgc3R5bGU9InN0cm9rZTojMTgxODE4O3N0cm9rZS13aWR0aDoxOyIgeDE9IjUyMi43NSIgeDI9IjUyOC43NSIgeTE9Ijg2Ny43OCIgeTI9Ijg3NS43OCIvPjxsaW5lIHN0eWxlPSJzdHJva2U6IzE4MTgxODtzdHJva2Utd2lkdGg6MTsiIHgxPSI1MjIuNzUiIHgyPSI1MTYuNzUiIHkxPSI4NjcuNzgiIHkyPSI4NzUuNzgiLz48bGluZSBzdHlsZT0ic3Ryb2tlOiMxODE4MTg7c3Ryb2tlLXdpZHRoOjE7IiB4MT0iNTIyLjc1IiB4Mj0iNTIyLjc1IiB5MT0iODY3Ljc4IiB5Mj0iODc1Ljc4Ii8+PGVsbGlwc2UgY3g9IjUyMi43NSIgY3k9Ijg2MS43OCIgZmlsbD0ibm9uZSIgcng9IjQiIHJ5PSI0IiBzdHlsZT0ic3Ryb2tlOiMxODE4MTg7c3Ryb2tlLXdpZHRoOjE7Ii8+PC9nPjwhLS1saW5rIFBvc2l0aW9ucyB0byBFbXBsb3llZXMtLT48ZyBjbGFzcz0ibGluayIgZGF0YS1lbnRpdHktMT0iUG9zaXRpb25zIiBkYXRhLWVudGl0eS0yPSJFbXBsb3llZXMiIGRhdGEtc291cmNlLWxpbmU9IjE5MSIgZGF0YS11aWQ9ImxuazI1IiBpZD0ibGlua19Qb3NpdGlvbnNfRW1wbG95ZWVzIj48cGF0aCBjb2RlTGluZT0iMTkxIiBkPSJNNjgzLjUsODI0LjI1IEM2ODMuNSw4NDEuOTUgNjgzLjUsODM2LjczIDY4My41LDg1Ny45NyIgZmlsbD0ibm9uZSIgaWQ9IlBvc2l0aW9ucy1FbXBsb3llZXMiIHN0eWxlPSJzdHJva2U6IzE4MTgxODtzdHJva2Utd2lkdGg6MTsiLz48bGluZSBzdHlsZT0ic3Ryb2tlOiMxODE4MTg7c3Ryb2tlLXdpZHRoOjE7IiB4MT0iNjc5LjUiIHgyPSI2ODcuNSIgeTE9IjgyMC4yNSIgeTI9IjgyMC4yNSIvPjxsaW5lIHN0eWxlPSJzdHJva2U6IzE4MTgxODtzdHJva2Utd2lkdGg6MTsiIHgxPSI2NzkuNSIgeDI9IjY4Ny41IiB5MT0iODIzLjI1IiB5Mj0iODIzLjI1Ii8+PGxpbmUgc3R5bGU9InN0cm9rZTojMTgxODE4O3N0cm9rZS13aWR0aDoxOyIgeDE9IjY4My41IiB4Mj0iNjgzLjUiIHkxPSI4MjQuMjUiIHkyPSI4MTYuMjUiLz48bGluZSBzdHlsZT0ic3Ryb2tlOiMxODE4MTg7c3Ryb2tlLXdpZHRoOjE7IiB4MT0iNjgzLjUiIHgyPSI2ODkuNSIgeTE9Ijg2Ny45NyIgeTI9Ijg3NS45NyIvPjxsaW5lIHN0eWxlPSJzdHJva2U6IzE4MTgxODtzdHJva2Utd2lkdGg6MTsiIHgxPSI2ODMuNSIgeDI9IjY3Ny41IiB5MT0iODY3Ljk3IiB5Mj0iODc1Ljk3Ii8+PGxpbmUgc3R5bGU9InN0cm9rZTojMTgxODE4O3N0cm9rZS13aWR0aDoxOyIgeDE9IjY4My41IiB4Mj0iNjgzLjUiIHkxPSI4NjcuOTciIHkyPSI4NzUuOTciLz48ZWxsaXBzZSBjeD0iNjgzLjUiIGN5PSI4NjEuOTciIGZpbGw9Im5vbmUiIHJ4PSI0IiByeT0iNCIgc3R5bGU9InN0cm9rZTojMTgxODE4O3N0cm9rZS13aWR0aDoxOyIvPjwvZz48IS0tbGluayBFbXBsb3llZXMgdG8gQ29udHJhY3RzLS0+PGcgY2xhc3M9ImxpbmsiIGRhdGEtZW50aXR5LTE9IkVtcGxveWVlcyIgZGF0YS1lbnRpdHktMj0iQ29udHJhY3RzIiBkYXRhLXNvdXJjZS1saW5lPSIxOTIiIGRhdGEtdWlkPSJsbmsyNiIgaWQ9ImxpbmtfRW1wbG95ZWVzX0NvbnRyYWN0cyI+PHBhdGggY29kZUxpbmU9IjE5MiIgZD0iTTQ4Ny40NCw5NjUgQzM0Ny41OSw5NjUgMTI5LDk2NSAxMjksOTY1IEMxMjksOTY1IDEyOSwxMTMzLjkgMTI5LDEyMzYuNDciIGZpbGw9Im5vbmUiIGlkPSJFbXBsb3llZXMtQ29udHJhY3RzIiBzdHlsZT0ic3Ryb2tlOiMxODE4MTg7c3Ryb2tlLXdpZHRoOjE7Ii8+PGxpbmUgc3R5bGU9InN0cm9rZTojMTgxODE4O3N0cm9rZS13aWR0aDoxOyIgeDE9IjQ5MS40NCIgeDI9IjQ5MS40NCIgeTE9Ijk2MSIgeTI9Ijk2OSIvPjxsaW5lIHN0eWxlPSJzdHJva2U6IzE4MTgxODtzdHJva2Utd2lkdGg6MTsiIHgxPSI0ODguNDQiIHgyPSI0ODguNDQiIHkxPSI5NjEiIHkyPSI5NjkiLz48bGluZSBzdHlsZT0ic3Ryb2tlOiMxODE4MTg7c3Ryb2tlLXdpZHRoOjE7IiB4MT0iNDg3LjQ0IiB4Mj0iNDk1LjQ0IiB5MT0iOTY1IiB5Mj0iOTY1Ii8+PGxpbmUgc3R5bGU9InN0cm9rZTojMTgxODE4O3N0cm9rZS13aWR0aDoxOyIgeDE9IjEyOSIgeDI9IjEzNSIgeTE9IjEyNDYuNDciIHkyPSIxMjU0LjQ3Ii8+PGxpbmUgc3R5bGU9InN0cm9rZTojMTgxODE4O3N0cm9rZS13aWR0aDoxOyIgeDE9IjEyOSIgeDI9IjEyMyIgeTE9IjEyNDYuNDciIHkyPSIxMjU0LjQ3Ii8+PGxpbmUgc3R5bGU9InN0cm9rZTojMTgxODE4O3N0cm9rZS13aWR0aDoxOyIgeDE9IjEyOSIgeDI9IjEyOSIgeTE9IjEyNDYuNDciIHkyPSIxMjU0LjQ3Ii8+PGVsbGlwc2UgY3g9IjEyOSIgY3k9IjEyNDAuNDciIGZpbGw9Im5vbmUiIHJ4PSI0IiByeT0iNCIgc3R5bGU9InN0cm9rZTojMTgxODE4O3N0cm9rZS13aWR0aDoxOyIvPjwvZz48IS0tbGluayBFbXBsb3llZXMgdG8gUGF5cm9sbC0tPjxnIGNsYXNzPSJsaW5rIiBkYXRhLWVudGl0eS0xPSJFbXBsb3llZXMiIGRhdGEtZW50aXR5LTI9IlBheXJvbGwiIGRhdGEtc291cmNlLWxpbmU9IjE5MyIgZGF0YS11aWQ9ImxuazI3IiBpZD0ibGlua19FbXBsb3llZXNfUGF5cm9sbCI+PHBhdGggY29kZUxpbmU9IjE5MyIgZD0iTTQ4Ny40NiwxMDU0IEM0MTkuMzQsMTA1NCAzNTIsMTA1NCAzNTIsMTA1NCBDMzUyLDEwNTQgMzUyLDExNTcuNDggMzUyLDEyMzYuMjUiIGZpbGw9Im5vbmUiIGlkPSJFbXBsb3llZXMtUGF5cm9sbCIgc3R5bGU9InN0cm9rZTojMTgxODE4O3N0cm9rZS13aWR0aDoxOyIvPjxsaW5lIHN0eWxlPSJzdHJva2U6IzE4MTgxODtzdHJva2Utd2lkdGg6MTsiIHgxPSI0OTEuNDYiIHgyPSI0OTEuNDYiIHkxPSIxMDUwIiB5Mj0iMTA1OCIvPjxsaW5lIHN0eWxlPSJzdHJva2U6IzE4MTgxODtzdHJva2Utd2lkdGg6MTsiIHgxPSI0ODguNDYiIHgyPSI0ODguNDYiIHkxPSIxMDUwIiB5Mj0iMTA1OCIvPjxsaW5lIHN0eWxlPSJzdHJva2U6IzE4MTgxODtzdHJva2Utd2lkdGg6MTsiIHgxPSI0ODcuNDYiIHgyPSI0OTUuNDYiIHkxPSIxMDU0IiB5Mj0iMTA1NCIvPjxsaW5lIHN0eWxlPSJzdHJva2U6IzE4MTgxODtzdHJva2Utd2lkdGg6MTsiIHgxPSIzNTIiIHgyPSIzNTgiIHkxPSIxMjQ2LjI1IiB5Mj0iMTI1NC4yNSIvPjxsaW5lIHN0eWxlPSJzdHJva2U6IzE4MTgxODtzdHJva2Utd2lkdGg6MTsiIHgxPSIzNTIiIHgyPSIzNDYiIHkxPSIxMjQ2LjI1IiB5Mj0iMTI1NC4yNSIvPjxsaW5lIHN0eWxlPSJzdHJva2U6IzE4MTgxODtzdHJva2Utd2lkdGg6MTsiIHgxPSIzNTIiIHgyPSIzNTIiIHkxPSIxMjQ2LjI1IiB5Mj0iMTI1NC4yNSIvPjxlbGxpcHNlIGN4PSIzNTIiIGN5PSIxMjQwLjI1IiBmaWxsPSJub25lIiByeD0iNCIgcnk9IjQiIHN0eWxlPSJzdHJva2U6IzE4MTgxODtzdHJva2Utd2lkdGg6MTsiLz48L2c+PCEtLWxpbmsgRW1wbG95ZWVzIHRvIExlYXZlcy0tPjxnIGNsYXNzPSJsaW5rIiBkYXRhLWVudGl0eS0xPSJFbXBsb3llZXMiIGRhdGEtZW50aXR5LTI9IkxlYXZlcyIgZGF0YS1zb3VyY2UtbGluZT0iMTk0IiBkYXRhLXVpZD0ibG5rMjgiIGlkPSJsaW5rX0VtcGxveWVlc19MZWF2ZXMiPjxwYXRoIGNvZGVMaW5lPSIxOTQiIGQ9Ik01MzUuMjUsMTE1MC4yNSBDNTM1LjI1LDExODYuMDIgNTM1LjI1LDExOTcuNCA1MzUuMjUsMTIyOC42IiBmaWxsPSJub25lIiBpZD0iRW1wbG95ZWVzLUxlYXZlcyIgc3R5bGU9InN0cm9rZTojMTgxODE4O3N0cm9rZS13aWR0aDoxOyIvPjxsaW5lIHN0eWxlPSJzdHJva2U6IzE4MTgxODtzdHJva2Utd2lkdGg6MTsiIHgxPSI1MzEuMjUiIHgyPSI1MzkuMjUiIHkxPSIxMTQ2LjI1IiB5Mj0iMTE0Ni4yNSIvPjxsaW5lIHN0eWxlPSJzdHJva2U6IzE4MTgxODtzdHJva2Utd2lkdGg6MTsiIHgxPSI1MzEuMjUiIHgyPSI1MzkuMjUiIHkxPSIxMTQ5LjI1IiB5Mj0iMTE0OS4yNSIvPjxsaW5lIHN0eWxlPSJzdHJva2U6IzE4MTgxODtzdHJva2Utd2lkdGg6MTsiIHgxPSI1MzUuMjUiIHgyPSI1MzUuMjUiIHkxPSIxMTUwLjI1IiB5Mj0iMTE0Mi4yNSIvPjxsaW5lIHN0eWxlPSJzdHJva2U6IzE4MTgxODtzdHJva2Utd2lkdGg6MTsiIHgxPSI1MzUuMjUiIHgyPSI1NDEuMjUiIHkxPSIxMjM4LjYiIHkyPSIxMjQ2LjYiLz48bGluZSBzdHlsZT0ic3Ryb2tlOiMxODE4MTg7c3Ryb2tlLXdpZHRoOjE7IiB4MT0iNTM1LjI1IiB4Mj0iNTI5LjI1IiB5MT0iMTIzOC42IiB5Mj0iMTI0Ni42Ii8+PGxpbmUgc3R5bGU9InN0cm9rZTojMTgxODE4O3N0cm9rZS13aWR0aDoxOyIgeDE9IjUzNS4yNSIgeDI9IjUzNS4yNSIgeTE9IjEyMzguNiIgeTI9IjEyNDYuNiIvPjxlbGxpcHNlIGN4PSI1MzUuMjUiIGN5PSIxMjMyLjYiIGZpbGw9Im5vbmUiIHJ4PSI0IiByeT0iNCIgc3R5bGU9InN0cm9rZTojMTgxODE4O3N0cm9rZS13aWR0aDoxOyIvPjwvZz48IS0tbGluayBFbXBsb3llZXMgdG8gRXZhbHVhdGlvbnMtLT48ZyBjbGFzcz0ibGluayIgZGF0YS1lbnRpdHktMT0iRW1wbG95ZWVzIiBkYXRhLWVudGl0eS0yPSJFdmFsdWF0aW9ucyIgZGF0YS1zb3VyY2UtbGluZT0iMTk1IiBkYXRhLXVpZD0ibG5rMjkiIGlkPSJsaW5rX0VtcGxveWVlc19FdmFsdWF0aW9ucyI+PHBhdGggY29kZUxpbmU9IjE5NSIgZD0iTTY2MC4yNSwxMTUwLjI1IEM2NjAuMjUsMTE3MC4wMyA2NjAuMjUsMTE2NC4zIDY2MC4yNSwxMTgzLjc1IiBmaWxsPSJub25lIiBpZD0iRW1wbG95ZWVzLUV2YWx1YXRpb25zIiBzdHlsZT0ic3Ryb2tlOiMxODE4MTg7c3Ryb2tlLXdpZHRoOjE7Ii8+PGxpbmUgc3R5bGU9InN0cm9rZTojMTgxODE4O3N0cm9rZS13aWR0aDoxOyIgeDE9IjY1Ni4yNSIgeDI9IjY2NC4yNSIgeTE9IjExNDYuMjUiIHkyPSIxMTQ2LjI1Ii8+PGxpbmUgc3R5bGU9InN0cm9rZTojMTgxODE4O3N0cm9rZS13aWR0aDoxOyIgeDE9IjY1Ni4yNSIgeDI9IjY2NC4yNSIgeTE9IjExNDkuMjUiIHkyPSIxMTQ5LjI1Ii8+PGxpbmUgc3R5bGU9InN0cm9rZTojMTgxODE4O3N0cm9rZS13aWR0aDoxOyIgeDE9IjY2MC4yNSIgeDI9IjY2MC4yNSIgeTE9IjExNTAuMjUiIHkyPSIxMTQyLjI1Ii8+PGxpbmUgc3R5bGU9InN0cm9rZTojMTgxODE4O3N0cm9rZS13aWR0aDoxOyIgeDE9IjY2MC4yNSIgeDI9IjY2Ni4yNSIgeTE9IjExOTMuNzUiIHkyPSIxMjAxLjc1Ii8+PGxpbmUgc3R5bGU9InN0cm9rZTojMTgxODE4O3N0cm9rZS13aWR0aDoxOyIgeDE9IjY2MC4yNSIgeDI9IjY1NC4yNSIgeTE9IjExOTMuNzUiIHkyPSIxMjAxLjc1Ii8+PGxpbmUgc3R5bGU9InN0cm9rZTojMTgxODE4O3N0cm9rZS13aWR0aDoxOyIgeDE9IjY2MC4yNSIgeDI9IjY2MC4yNSIgeTE9IjExOTMuNzUiIHkyPSIxMjAxLjc1Ii8+PGVsbGlwc2UgY3g9IjY2MC4yNSIgY3k9IjExODcuNzUiIGZpbGw9Im5vbmUiIHJ4PSI0IiByeT0iNCIgc3R5bGU9InN0cm9rZTojMTgxODE4O3N0cm9rZS13aWR0aDoxOyIvPjwvZz48IS0tbGluayBFbXBsb3llZXMgdG8gRW1wbG95ZWVfVHJhaW5pbmdzLS0+PGcgY2xhc3M9ImxpbmsiIGRhdGEtZW50aXR5LTE9IkVtcGxveWVlcyIgZGF0YS1lbnRpdHktMj0iRW1wbG95ZWVfVHJhaW5pbmdzIiBkYXRhLXNvdXJjZS1saW5lPSIxOTYiIGRhdGEtdWlkPSJsbmszMCIgaWQ9ImxpbmtfRW1wbG95ZWVzX0VtcGxveWVlX1RyYWluaW5ncyI+PHBhdGggY29kZUxpbmU9IjE5NiIgZD0iTTcxOC41NywxMDg3IEM4NjUuNTIsMTA4NyAxMTAzLDEwODcgMTEwMywxMDg3IEMxMTAzLDEwODcgMTEwMywxMTkxLjY3IDExMDMsMTI1OC45OSIgZmlsbD0ibm9uZSIgaWQ9IkVtcGxveWVlcy1FbXBsb3llZV9UcmFpbmluZ3MiIHN0eWxlPSJzdHJva2U6IzE4MTgxODtzdHJva2Utd2lkdGg6MTsiLz48bGluZSBzdHlsZT0ic3Ryb2tlOiMxODE4MTg7c3Ryb2tlLXdpZHRoOjE7IiB4MT0iNzE0LjU3IiB4Mj0iNzE0LjU3IiB5MT0iMTA5MSIgeTI9IjEwODMiLz48bGluZSBzdHlsZT0ic3Ryb2tlOiMxODE4MTg7c3Ryb2tlLXdpZHRoOjE7IiB4MT0iNzE3LjU3IiB4Mj0iNzE3LjU3IiB5MT0iMTA5MSIgeTI9IjEwODMiLz48bGluZSBzdHlsZT0ic3Ryb2tlOiMxODE4MTg7c3Ryb2tlLXdpZHRoOjE7IiB4MT0iNzE4LjU3IiB4Mj0iNzEwLjU3IiB5MT0iMTA4NyIgeTI9IjEwODciLz48bGluZSBzdHlsZT0ic3Ryb2tlOiMxODE4MTg7c3Ryb2tlLXdpZHRoOjE7IiB4MT0iMTEwMyIgeDI9IjExMDkiIHkxPSIxMjY4Ljk5IiB5Mj0iMTI3Ni45OSIvPjxsaW5lIHN0eWxlPSJzdHJva2U6IzE4MTgxODtzdHJva2Utd2lkdGg6MTsiIHgxPSIxMTAzIiB4Mj0iMTA5NyIgeTE9IjEyNjguOTkiIHkyPSIxMjc2Ljk5Ii8+PGxpbmUgc3R5bGU9InN0cm9rZTojMTgxODE4O3N0cm9rZS13aWR0aDoxOyIgeDE9IjExMDMiIHgyPSIxMTAzIiB5MT0iMTI2OC45OSIgeTI9IjEyNzYuOTkiLz48ZWxsaXBzZSBjeD0iMTEwMyIgY3k9IjEyNjIuOTkiIGZpbGw9Im5vbmUiIHJ4PSI0IiByeT0iNCIgc3R5bGU9InN0cm9rZTojMTgxODE4O3N0cm9rZS13aWR0aDoxOyIvPjwvZz48IS0tbGluayBFbXBsb3llZXMgdG8gRXZlbnRzLS0+PGcgY2xhc3M9ImxpbmsiIGRhdGEtZW50aXR5LTE9IkVtcGxveWVlcyIgZGF0YS1lbnRpdHktMj0iRXZlbnRzIiBkYXRhLXNvdXJjZS1saW5lPSIxOTciIGRhdGEtdWlkPSJsbmszMSIgaWQ9ImxpbmtfRW1wbG95ZWVzX0V2ZW50cyI+PHBhdGggY29kZUxpbmU9IjE5NyIgZD0iTTcxOC42NSwxMTE1IEM4MjIuOCwxMTE1IDk1NywxMTE1IDk1NywxMTE1IEM5NTcsMTExNSA5NTcsMTE2OS45OSA5NTcsMTIyOC44NiIgZmlsbD0ibm9uZSIgaWQ9IkVtcGxveWVlcy1FdmVudHMiIHN0eWxlPSJzdHJva2U6IzE4MTgxODtzdHJva2Utd2lkdGg6MTsiLz48bGluZSBzdHlsZT0ic3Ryb2tlOiMxODE4MTg7c3Ryb2tlLXdpZHRoOjE7IiB4MT0iNzE0LjY1IiB4Mj0iNzE0LjY1IiB5MT0iMTExOSIgeTI9IjExMTEiLz48bGluZSBzdHlsZT0ic3Ryb2tlOiMxODE4MTg7c3Ryb2tlLXdpZHRoOjE7IiB4MT0iNzE3LjY1IiB4Mj0iNzE3LjY1IiB5MT0iMTExOSIgeTI9IjExMTEiLz48bGluZSBzdHlsZT0ic3Ryb2tlOiMxODE4MTg7c3Ryb2tlLXdpZHRoOjE7IiB4MT0iNzE4LjY1IiB4Mj0iNzEwLjY1IiB5MT0iMTExNSIgeTI9IjExMTUiLz48bGluZSBzdHlsZT0ic3Ryb2tlOiMxODE4MTg7c3Ryb2tlLXdpZHRoOjE7IiB4MT0iOTU3IiB4Mj0iOTYzIiB5MT0iMTIzOC44NiIgeTI9IjEyNDYuODYiLz48bGluZSBzdHlsZT0ic3Ryb2tlOiMxODE4MTg7c3Ryb2tlLXdpZHRoOjE7IiB4MT0iOTU3IiB4Mj0iOTUxIiB5MT0iMTIzOC44NiIgeTI9IjEyNDYuODYiLz48bGluZSBzdHlsZT0ic3Ryb2tlOiMxODE4MTg7c3Ryb2tlLXdpZHRoOjE7IiB4MT0iOTU3IiB4Mj0iOTU3IiB5MT0iMTIzOC44NiIgeTI9IjEyNDYuODYiLz48ZWxsaXBzZSBjeD0iOTU3IiBjeT0iMTIzMi44NiIgZmlsbD0ibm9uZSIgcng9IjQiIHJ5PSI0IiBzdHlsZT0ic3Ryb2tlOiMxODE4MTg7c3Ryb2tlLXdpZHRoOjE7Ii8+PC9nPjwhLS1saW5rIFRyYWluaW5ncyB0byBFbXBsb3llZV9UcmFpbmluZ3MtLT48ZyBjbGFzcz0ibGluayIgZGF0YS1lbnRpdHktMT0iVHJhaW5pbmdzIiBkYXRhLWVudGl0eS0yPSJFbXBsb3llZV9UcmFpbmluZ3MiIGRhdGEtc291cmNlLWxpbmU9IjE5OCIgZGF0YS11aWQ9ImxuazMyIiBpZD0ibGlua19UcmFpbmluZ3NfRW1wbG95ZWVfVHJhaW5pbmdzIj48cGF0aCBjb2RlTGluZT0iMTk4IiBkPSJNMTE4NiwxMDY3LjY2IEMxMTg2LDExMjguMDcgMTE4NiwxMjAyLjAxIDExODYsMTI1OC44OCIgZmlsbD0ibm9uZSIgaWQ9IlRyYWluaW5ncy1FbXBsb3llZV9UcmFpbmluZ3MiIHN0eWxlPSJzdHJva2U6IzE4MTgxODtzdHJva2Utd2lkdGg6MTsiLz48bGluZSBzdHlsZT0ic3Ryb2tlOiMxODE4MTg7c3Ryb2tlLXdpZHRoOjE7IiB4MT0iMTE4MiIgeDI9IjExOTAiIHkxPSIxMDYzLjY2IiB5Mj0iMTA2My42NiIvPjxsaW5lIHN0eWxlPSJzdHJva2U6IzE4MTgxODtzdHJva2Utd2lkdGg6MTsiIHgxPSIxMTgyIiB4Mj0iMTE5MCIgeTE9IjEwNjYuNjYiIHkyPSIxMDY2LjY2Ii8+PGxpbmUgc3R5bGU9InN0cm9rZTojMTgxODE4O3N0cm9rZS13aWR0aDoxOyIgeDE9IjExODYiIHgyPSIxMTg2IiB5MT0iMTA2Ny42NiIgeTI9IjEwNTkuNjYiLz48bGluZSBzdHlsZT0ic3Ryb2tlOiMxODE4MTg7c3Ryb2tlLXdpZHRoOjE7IiB4MT0iMTE4NiIgeDI9IjExOTIiIHkxPSIxMjY4Ljg4IiB5Mj0iMTI3Ni44OCIvPjxsaW5lIHN0eWxlPSJzdHJva2U6IzE4MTgxODtzdHJva2Utd2lkdGg6MTsiIHgxPSIxMTg2IiB4Mj0iMTE4MCIgeTE9IjEyNjguODgiIHkyPSIxMjc2Ljg4Ii8+PGxpbmUgc3R5bGU9InN0cm9rZTojMTgxODE4O3N0cm9rZS13aWR0aDoxOyIgeDE9IjExODYiIHgyPSIxMTg2IiB5MT0iMTI2OC44OCIgeTI9IjEyNzYuODgiLz48ZWxsaXBzZSBjeD0iMTE4NiIgY3k9IjEyNjIuODgiIGZpbGw9Im5vbmUiIHJ4PSI0IiByeT0iNCIgc3R5bGU9InN0cm9rZTojMTgxODE4O3N0cm9rZS13aWR0aDoxOyIvPjwvZz48IS0tU1JDPVtmTFBCUnppdTRCeGhMXzNNMXZmQnFvdU1HTGgwSlBKTU0zaXM3QkxlSm04akpJb3NWMFdLdlF0SHhkX1Y4SWJCZWdMS3NNcUVXSnBsNlN2eUNtTkJXTUhDUG5vWXdYa0o5VExLNEN1YWM0QzlINmJKZzJYd0dqd3FWb0ktX1JZeXduNFlhQktXeHE3Y2VDY0ZZOTBiSE1FNHQ4M203b2pKVzh4LVlSbldCNGdrM1cxdFhmZ3dTV2dwcEIyemJQbkJVbG5Tb0dMR3p4TTFZa3FhdkFzNUFvTURIaTc0SGNaclJzaEUzSERNVTRzclFKd0ZPZ3NVQ3pYcGt5UUdjVHBQMENmSWdwc3dpRHctR2NQd3RrOHpvQ3hMMWx3Y3NpZlRpb2ZaZklzS2JHbUFiQ3BVQlVBV0djWjlDN0NXeHBJTE1HN1VfTkYyU2Q5MXZoUzlrUm5TX19Oc0JUQkVwbDJWZjBBR3lNY3NrVmVtc28yMXZoYzZnYTlRNGR6RWEwMkxlTGxFZ1dCb0RBVjZJYl9GYWpaN3gzdExaRGxhOWJuak5LMWZadGxaa1RDblM2Z2lzX1hnbGZtang2LXYydHhWQXNMQXBRSUxzZTRJT0ZKWHdOZ3ItRjktVFZsWXJWZEJGdnZQOFF3S0paRExFcDZDZUFLTG03UTVJS0xXcW9YMy1KWUJRZzJmVTFkR0NpTVR6Sm5DSEwxOVR3M0pHT3ZDODNzakRHXzVLUC1kdl9jME9VMnhnVk1mR2xTNjZ3TjRMRnNSUHRoQzJ4WXdqNUtRb3hVa1JGbmtTRmtBRVUxSzZ1NUgzVG5xbUx3dEdsLXJFdEVlQ2lyQW12R3lUYVRkVGdxZ1BaYUpIYjZNWHJPdngyNGl6dlBNYTVRS0t0dGVQVHN2RVdCQlhBangxOGxYcS15eVY1cXFFNlJKS2psWk0xNUk1YWc2MldYa1ozLXNwNllXZ1NDOElzRVJaOTN6NjIwMlJRNXhUSVN4UUVZMk9IVnNTTzJHb2lGU25HZFNzaVJQS3FGcmU5Y3ZvZ1dCUzhfbXZfaGlLdG9MaDNQRnByX18tUW5OdklFZ0piR1A2aFNaWUpOenNLVG43eDBzOXFkV0t2bkdmZGZXSkd6UVNWd19PcGkwYmFQV1A0TEc3RXluVFYwSkpEbk1JTFZiWmY5M05jVS11eVMyVDNsZWpzbE4wbU1EM0g3TW9BV0owWTk1clNyY2hwVHcyeDROT2c4ZmF6RWhPcFlvOHEyMEgwbWJuSXNwV3I2Q0ZCUGRVa2hyNXFMdUphbVpGQzlxaVU2Y2doYVBUeFlkbEFRRldBSFYxMDJqWlJHNHBMR1VSYWZaaTc1bmhzQWRQYWYzcTF4UXRHeVpaQm96OXFRT1JSdjM1V1BtaHhIdW05clZjMkRYS0ZhalBKQmpDQWszYzhRTEFMNUlVTVpmN1hWSWdYUjJKcnlWNy1tdks5Y3FCa3Jwc3Q4YXlzTHlieW9Nd3czcXF6amJrbFZSVXNvcTFwRVNOUF9EeUxJb3VnVld3N0R1NEVnMlFzdUpCc1I5VjdMeHpzNi0zZS13emZoeC1WRmlKRnRlUmd3ZWt4dVFiWmk1OGR5R0RBSHNOT05hdFh3RS1aanZlRExqclc2aHN1R0RnbU5qOFFqMXAyNzM4ek1HdFhrVzRVUFdkQ1NDa0VJd1dOekd6cnkwXS0tPjwvZz48L3N2Zz4=;" parent="1" vertex="1">
            <mxGeometry x="-810" y="570" width="1283" height="1444" as="geometry" />
          </mxCell>
        </UserObject>
      </root>
    </mxGraphModel>
  </diagram>
</mxfile>
